<svg id="map" width="1200" height="900" xmlns="http://www.w3.org/2000/svg"><defs><filter id="parchment-texture" x="0%" y="0%" width="100%" height="100%"><feTurbulence type="fractalNoise" baseFrequency="0.03" numOctaves="4" seed="23" stitchTiles="stitch" result="noise"/><feColorMatrix type="matrix" in="noise" values="0 0 0 0 0.941&#10;                     0 0 0 0 0.902&#10;                     0 0 0 0 0.800&#10;                     0 0 0 0.3 0.7" result="colored"/><feBlend in="SourceGraphic" in2="colored" mode="multiply"/></filter><radialGradient id="parchment-grad" cx="50%" cy="50%" r="70%"><stop offset="0%" stop-color="#f0e6cc"/><stop offset="100%" stop-color="#d8ccaa"/></radialGradient></defs><g transform="translate(30.46481342970469,-39.67666700454197) scale(1)"><rect width="3600" height="2700" x="-1200" y="-900" fill="url(#parchment-grad)" filter="url(#parchment-texture)"/><rect x="320.0185499191984" y="-14.575946823556123" width="499.0332733021938" height="1008.5052276561962" fill="none" stroke="#6a90b0" stroke-width="1.2" opacity="0.8"/><line x1="320.0185499191984" y1="-14.575946823556123" x2="332.0185499191984" y2="-14.575946823556123" stroke="#3a6590" stroke-width="1"/><line x1="320.0185499191984" y1="-14.575946823556123" x2="320.0185499191984" y2="-2.575946823556123" stroke="#3a6590" stroke-width="1"/><line x1="819.0518232213922" y1="-14.575946823556123" x2="807.0518232213922" y2="-14.575946823556123" stroke="#3a6590" stroke-width="1"/><line x1="819.0518232213922" y1="-14.575946823556123" x2="819.0518232213922" y2="-2.575946823556123" stroke="#3a6590" stroke-width="1"/><line x1="320.0185499191984" y1="993.9292808326401" x2="332.0185499191984" y2="993.9292808326401" stroke="#3a6590" stroke-width="1"/><line x1="320.0185499191984" y1="993.9292808326401" x2="320.0185499191984" y2="981.9292808326401" stroke="#3a6590" stroke-width="1"/><line x1="819.0518232213922" y1="993.9292808326401" x2="807.0518232213922" y2="993.9292808326401" stroke="#3a6590" stroke-width="1"/><line x1="819.0518232213922" y1="993.9292808326401" x2="819.0518232213922" y2="981.9292808326401" stroke="#3a6590" stroke-width="1"/><line x1="305.0185499191984" y1="15.424053176443877" x2="305.0185499191984" y2="34.11379653042913" stroke="#3a6590" stroke-width="1.5" opacity="0.8"/><line x1="293.96927840306904" y1="26.037839122611107" x2="316.06782143532774" y2="21.037839122611107" stroke="#3a6590" stroke-width="1.2" opacity="0.8"/><line x1="305.0185499191984" y1="56.66341090062632" x2="305.0185499191984" y2="76.411878824234" stroke="#3a6590" stroke-width="1.5" opacity="0.8"/><line x1="296.7234347668245" y1="66.31896656267924" x2="313.3136650715723" y2="61.318966562679236" stroke="#3a6590" stroke-width="1.2" opacity="0.8"/><line x1="300.87099234301144" y1="76.411878824234" x2="310.54862668744767" y2="68.51249165479092" stroke="#3a6590" stroke-width="1.1" opacity="0.8"/><line x1="305.0185499191984" y1="97.90276862480876" x2="305.0185499191984" y2="115.74477770538267" stroke="#3a6590" stroke-width="1.5" opacity="0.8"/><line x1="305.0185499191984" y1="97.90276862480876" x2="315.2387128740783" y2="106.82377316509572" stroke="#3a6590" stroke-width="1.2" opacity="0.8"/><line x1="298.8864521462704" y1="115.74477770538267" x2="313.19468028310234" y2="108.6079740731531" stroke="#3a6590" stroke-width="1.1" opacity="0.8"/><line x1="305.0185499191984" y1="139.1421263489912" x2="305.0185499191984" y2="155.16518406076756" stroke="#3a6590" stroke-width="1.5" opacity="0.8"/><line x1="293.88933437240786" y1="149.31572602235818" x2="316.1477654659889" y2="144.31572602235818" stroke="#3a6590" stroke-width="1.2" opacity="0.8"/><line x1="305.0185499191984" y1="180.38148407317362" x2="305.0185499191984" y2="197.98321999428458" stroke="#3a6590" stroke-width="1.5" opacity="0.8"/><line x1="301.8860905055656" y1="197.98321999428458" x2="309.19516247070874" y2="190.9425256258402" stroke="#3a6590" stroke-width="1.1" opacity="0.8"/><line x1="305.0185499191984" y1="221.6208417973561" x2="305.0185499191984" y2="237.7835834533056" stroke="#3a6590" stroke-width="1.5" opacity="0.8"/><line x1="305.0185499191984" y1="221.6208417973561" x2="313.73089916335897" y2="229.70221262533084" stroke="#3a6590" stroke-width="1.2" opacity="0.8"/><line x1="305.0185499191984" y1="262.86019952153856" x2="305.0185499191984" y2="280.7769699955925" stroke="#3a6590" stroke-width="1.5" opacity="0.8"/><line x1="292.22275685553916" y1="268.50354658247494" x2="317.8143429828576" y2="263.50354658247494" stroke="#3a6590" stroke-width="1.2" opacity="0.8"/><line x1="305.0185499191984" y1="304.099557245721" x2="305.0185499191984" y2="321.57060528743347" stroke="#3a6590" stroke-width="1.5" opacity="0.8"/><line x1="294.0060220117449" y1="310.8050187833424" x2="316.0310778266519" y2="305.8050187833424" stroke="#3a6590" stroke-width="1.2" opacity="0.8"/><line x1="299.5122859654717" y1="321.57060528743347" x2="312.36023519083403" y2="314.5821860707485" stroke="#3a6590" stroke-width="1.1" opacity="0.8"/><line x1="305.0185499191984" y1="345.3389149699034" x2="305.0185499191984" y2="364.3868927056575" stroke="#3a6590" stroke-width="1.5" opacity="0.8"/><line x1="305.0185499191984" y1="386.57827269408585" x2="305.0185499191984" y2="406.537431455047" stroke="#3a6590" stroke-width="1.5" opacity="0.8"/><line x1="298.39111502922617" y1="398.0994026241158" x2="311.6459848091706" y2="393.0994026241158" stroke="#3a6590" stroke-width="1.2" opacity="0.8"/><line x1="305.0185499191984" y1="386.57827269408585" x2="310.54141232750857" y2="396.5578520745664" stroke="#3a6590" stroke-width="1.2" opacity="0.8"/><line x1="305.0185499191984" y1="427.81763041826827" x2="305.0185499191984" y2="446.4044554006953" stroke="#3a6590" stroke-width="1.5" opacity="0.8"/><line x1="291.0911738462515" y1="434.4144545029455" x2="318.9459259921453" y2="429.4144545029455" stroke="#3a6590" stroke-width="1.2" opacity="0.8"/><line x1="305.0185499191984" y1="469.05698814245073" x2="305.0185499191984" y2="487.94732324827595" stroke="#3a6590" stroke-width="1.5" opacity="0.8"/><line x1="295.9908061574913" y1="481.521269298984" x2="314.0462936809055" y2="476.521269298984" stroke="#3a6590" stroke-width="1.2" opacity="0.8"/><line x1="300.5046780383448" y1="487.94732324827595" x2="311.03704576033647" y2="480.39118920594586" stroke="#3a6590" stroke-width="1.1" opacity="0.8"/><line x1="305.0185499191984" y1="510.2963458666332" x2="305.0185499191984" y2="527.9658546968117" stroke="#3a6590" stroke-width="1.5" opacity="0.8"/><line x1="291.16566097044864" y1="516.8667366039301" x2="318.87143886794814" y2="511.8667366039301" stroke="#3a6590" stroke-width="1.2" opacity="0.8"/><line x1="305.0185499191984" y1="510.2963458666332" x2="316.5626240431565" y2="519.1311002817224" stroke="#3a6590" stroke-width="1.2" opacity="0.8"/><line x1="298.0921054448235" y1="527.9658546968117" x2="314.2538092183649" y2="520.8980511647403" stroke="#3a6590" stroke-width="1.1" opacity="0.8"/><line x1="305.0185499191984" y1="551.5357035908156" x2="305.0185499191984" y2="573.5095354008728" stroke="#3a6590" stroke-width="1.5" opacity="0.8"/><line x1="298.00557230243004" y1="566.1801213014343" x2="312.03152753596675" y2="561.1801213014343" stroke="#3a6590" stroke-width="1.2" opacity="0.8"/><line x1="305.0185499191984" y1="551.5357035908156" x2="310.862697933172" y2="562.5226194958442" stroke="#3a6590" stroke-width="1.2" opacity="0.8"/><line x1="305.0185499191984" y1="592.7750613149981" x2="305.0185499191984" y2="612.352495937215" stroke="#3a6590" stroke-width="1.5" opacity="0.8"/><line x1="296.1880684287987" y1="604.3603135891209" x2="313.84903140959807" y2="599.3603135891209" stroke="#3a6590" stroke-width="1.2" opacity="0.8"/><line x1="305.0185499191984" y1="634.0144190391806" x2="305.0185499191984" y2="654.1848102718872" stroke="#3a6590" stroke-width="1.5" opacity="0.8"/><line x1="291.9362934659935" y1="647.2477942348561" x2="318.10080637240327" y2="642.2477942348561" stroke="#3a6590" stroke-width="1.2" opacity="0.8"/><line x1="305.0185499191984" y1="634.0144190391806" x2="315.92043029686914" y2="644.0996146555339" stroke="#3a6590" stroke-width="1.2" opacity="0.8"/><line x1="305.0185499191984" y1="675.2537767633629" x2="305.0185499191984" y2="691.8590414009822" stroke="#3a6590" stroke-width="1.5" opacity="0.8"/><line x1="296.5327419909417" y1="682.3163651385609" x2="313.5043578474551" y2="677.3163651385609" stroke="#3a6590" stroke-width="1.2" opacity="0.8"/><line x1="305.0185499191984" y1="675.2537767633629" x2="312.09005652607897" y2="683.5564090821725" stroke="#3a6590" stroke-width="1.2" opacity="0.8"/><line x1="300.77564595507005" y1="691.8590414009822" x2="310.67575520470285" y2="685.2169355459345" stroke="#3a6590" stroke-width="1.1" opacity="0.8"/><line x1="305.0185499191984" y1="716.4931344875454" x2="305.0185499191984" y2="735.3454852794616" stroke="#3a6590" stroke-width="1.5" opacity="0.8"/><line x1="298.2319626042388" y1="723.1290057324882" x2="311.805137234158" y2="718.1290057324882" stroke="#3a6590" stroke-width="1.2" opacity="0.8"/><line x1="305.0185499191984" y1="716.4931344875454" x2="310.6740393483314" y2="725.9193098835035" stroke="#3a6590" stroke-width="1.2" opacity="0.8"/><line x1="305.0185499191984" y1="757.7324922117278" x2="305.0185499191984" y2="777.9306395901241" stroke="#3a6590" stroke-width="1.5" opacity="0.8"/><line x1="305.0185499191984" y1="757.7324922117278" x2="314.98455748946884" y2="767.831565900926" stroke="#3a6590" stroke-width="1.2" opacity="0.8"/><line x1="305.0185499191984" y1="798.9718499359103" x2="305.0185499191984" y2="816.9874368667031" stroke="#3a6590" stroke-width="1.5" opacity="0.8"/><line x1="305.0185499191984" y1="798.9718499359103" x2="314.6012146445691" y2="807.9796434013067" stroke="#3a6590" stroke-width="1.2" opacity="0.8"/><line x1="299.268951083976" y1="816.9874368667031" x2="312.68468169949494" y2="809.781202094386" stroke="#3a6590" stroke-width="1.1" opacity="0.8"/><line x1="305.0185499191984" y1="840.2112076600927" x2="305.0185499191984" y2="860.9657715076494" stroke="#3a6590" stroke-width="1.5" opacity="0.8"/><line x1="296.27697502260577" y1="847.5283769365082" x2="313.760124815791" y2="842.5283769365082" stroke="#3a6590" stroke-width="1.2" opacity="0.8"/><line x1="305.0185499191984" y1="840.2112076600927" x2="312.30319566635893" y2="850.588489583871" stroke="#3a6590" stroke-width="1.2" opacity="0.8"/><line x1="305.0185499191984" y1="881.4505653842751" x2="305.0185499191984" y2="901.875099889974" stroke="#3a6590" stroke-width="1.5" opacity="0.8"/><line x1="298.9385282695993" y1="894.7340564580079" x2="311.09857156879747" y2="889.7340564580079" stroke="#3a6590" stroke-width="1.2" opacity="0.8"/><line x1="305.0185499191984" y1="881.4505653842751" x2="310.0852346271976" y2="891.6628326371246" stroke="#3a6590" stroke-width="1.2" opacity="0.8"/><line x1="305.0185499191984" y1="922.6899231084576" x2="305.0185499191984" y2="941.6253777797288" stroke="#3a6590" stroke-width="1.5" opacity="0.8"/><line x1="299.4820332123666" y1="941.6253777797288" x2="312.4005721949741" y2="934.0511959112202" stroke="#3a6590" stroke-width="1.1" opacity="0.8"/><line x1="285.0185499191984" y1="15.424053176443877" x2="285.0185499191984" y2="36.252989769585284" stroke="#3a6590" stroke-width="1.5" opacity="0.8"/><line x1="276.83063709500726" y1="27.423548774140073" x2="293.2064627433895" y2="22.423548774140073" stroke="#3a6590" stroke-width="1.2" opacity="0.8"/><line x1="280.9245935071028" y1="36.252989769585284" x2="290.4771584686592" y2="27.92141513232872" stroke="#3a6590" stroke-width="1.1" opacity="0.8"/><line x1="285.0185499191984" y1="56.66341090062632" x2="285.0185499191984" y2="73.29602992115541" stroke="#3a6590" stroke-width="1.5" opacity="0.8"/><line x1="278.9232028095751" y1="66.11700265527337" x2="291.11389702882167" y2="61.11700265527337" stroke="#3a6590" stroke-width="1.2" opacity="0.8"/><line x1="285.0185499191984" y1="97.90276862480876" x2="285.0185499191984" y2="118.26127353855607" stroke="#3a6590" stroke-width="1.5" opacity="0.8"/><line x1="276.1721453399166" y1="105.53746659402042" x2="293.8649544984802" y2="100.53746659402042" stroke="#3a6590" stroke-width="1.2" opacity="0.8"/><line x1="285.0185499191984" y1="97.90276862480876" x2="292.39055373526656" y2="108.08202108168241" stroke="#3a6590" stroke-width="1.2" opacity="0.8"/><line x1="280.59534762955747" y1="118.26127353855607" x2="290.91615297205294" y2="110.11787157305714" stroke="#3a6590" stroke-width="1.1" opacity="0.8"/><line x1="285.0185499191984" y1="139.1421263489912" x2="285.0185499191984" y2="156.78010041285705" stroke="#3a6590" stroke-width="1.5" opacity="0.8"/><line x1="274.8876722618706" y1="149.81135464966084" x2="295.1494275765262" y2="144.81135464966084" stroke="#3a6590" stroke-width="1.2" opacity="0.8"/><line x1="279.9531110905345" y1="156.78010041285705" x2="291.7724683574169" y2="149.7249107873107" stroke="#3a6590" stroke-width="1.1" opacity="0.8"/><line x1="285.0185499191984" y1="180.38148407317362" x2="285.0185499191984" y2="199.49409154761247" stroke="#3a6590" stroke-width="1.5" opacity="0.8"/><line x1="270.85905320073954" y1="193.47071260115473" x2="299.17804663765725" y2="188.47071260115473" stroke="#3a6590" stroke-width="1.2" opacity="0.8"/><line x1="285.0185499191984" y1="221.6208417973561" x2="285.0185499191984" y2="239.96836970691436" stroke="#3a6590" stroke-width="1.5" opacity="0.8"/><line x1="273.2377505072161" y1="228.90296705964215" x2="296.7993493311807" y2="223.90296705964215" stroke="#3a6590" stroke-width="1.2" opacity="0.8"/><line x1="285.0185499191984" y1="221.6208417973561" x2="294.835882762517" y2="230.79460575213523" stroke="#3a6590" stroke-width="1.2" opacity="0.8"/><line x1="285.0185499191984" y1="262.86019952153856" x2="285.0185499191984" y2="280.01416060352767" stroke="#3a6590" stroke-width="1.5" opacity="0.8"/><line x1="271.4339202733479" y1="271.3397003895801" x2="298.6031795650489" y2="266.3397003895801" stroke="#3a6590" stroke-width="1.2" opacity="0.8"/><line x1="285.0185499191984" y1="262.86019952153856" x2="296.3390746240738" y2="271.4371800625331" stroke="#3a6590" stroke-width="1.2" opacity="0.8"/><line x1="278.2262350962731" y1="280.01416060352767" x2="294.07496968309874" y2="273.152576170732" stroke="#3a6590" stroke-width="1.1" opacity="0.8"/><line x1="285.0185499191984" y1="304.099557245721" x2="285.0185499191984" y2="321.76250008690437" stroke="#3a6590" stroke-width="1.5" opacity="0.8"/><line x1="272.64442759833776" y1="314.82692980196924" x2="297.392672240059" y2="309.82692980196924" stroke="#3a6590" stroke-width="1.2" opacity="0.8"/><line x1="285.0185499191984" y1="304.099557245721" x2="295.3303185199156" y2="312.93102866631267" stroke="#3a6590" stroke-width="1.2" opacity="0.8"/><line x1="285.0185499191984" y1="345.3389149699034" x2="285.0185499191984" y2="365.217110644062" stroke="#3a6590" stroke-width="1.5" opacity="0.8"/><line x1="278.8432830149076" y1="355.63060256372734" x2="291.19381682348916" y2="350.63060256372734" stroke="#3a6590" stroke-width="1.2" opacity="0.8"/><line x1="281.930916467053" y1="365.217110644062" x2="289.1353945220589" y2="357.26583237439854" stroke="#3a6590" stroke-width="1.1" opacity="0.8"/><line x1="285.0185499191984" y1="386.57827269408585" x2="285.0185499191984" y2="405.5755581504825" stroke="#3a6590" stroke-width="1.5" opacity="0.8"/><line x1="272.12287459147643" y1="394.2109397040514" x2="297.91422524692035" y2="389.2109397040514" stroke="#3a6590" stroke-width="1.2" opacity="0.8"/><line x1="285.0185499191984" y1="386.57827269408585" x2="295.7649460256334" y2="396.0769154222842" stroke="#3a6590" stroke-width="1.2" opacity="0.8"/><line x1="278.5707122553374" y1="405.5755581504825" x2="293.6156668043464" y2="397.97664396792385" stroke="#3a6590" stroke-width="1.1" opacity="0.8"/><line x1="285.0185499191984" y1="427.81763041826827" x2="285.0185499191984" y2="444.714124858537" stroke="#3a6590" stroke-width="1.5" opacity="0.8"/><line x1="272.5690838084325" y1="433.4705388726914" x2="297.4680160299643" y2="428.4705388726914" stroke="#3a6590" stroke-width="1.2" opacity="0.8"/><line x1="278.79381686381544" y1="444.714124858537" x2="293.31819399304237" y2="437.9555270824295" stroke="#3a6590" stroke-width="1.1" opacity="0.8"/><line x1="285.0185499191984" y1="469.05698814245073" x2="285.0185499191984" y2="487.06591756364463" stroke="#3a6590" stroke-width="1.5" opacity="0.8"/><line x1="275.8739925113275" y1="474.94142294355663" x2="294.16310732706927" y2="469.94142294355663" stroke="#3a6590" stroke-width="1.2" opacity="0.8"/><line x1="285.0185499191984" y1="469.05698814245073" x2="292.63901442575747" y2="478.0614528530477" stroke="#3a6590" stroke-width="1.2" opacity="0.8"/><line x1="285.0185499191984" y1="510.2963458666332" x2="285.0185499191984" y2="529.6415492374203" stroke="#3a6590" stroke-width="1.5" opacity="0.8"/><line x1="274.2659163373291" y1="516.1822662180963" x2="295.7711835010677" y2="511.1822662180963" stroke="#3a6590" stroke-width="1.2" opacity="0.8"/><line x1="285.0185499191984" y1="510.2963458666332" x2="293.9790779040895" y2="519.9689475520267" stroke="#3a6590" stroke-width="1.2" opacity="0.8"/><line x1="279.64223312826374" y1="529.6415492374203" x2="292.18697230711126" y2="521.9034678891055" stroke="#3a6590" stroke-width="1.1" opacity="0.8"/><line x1="285.0185499191984" y1="551.5357035908156" x2="285.0185499191984" y2="570.9756482753211" stroke="#3a6590" stroke-width="1.5" opacity="0.8"/><line x1="277.4772855911172" y1="564.6803000155959" x2="292.5598142472796" y2="559.6803000155959" stroke="#3a6590" stroke-width="1.2" opacity="0.8"/><line x1="285.0185499191984" y1="592.7750613149981" x2="285.0185499191984" y2="612.9297556682284" stroke="#3a6590" stroke-width="1.5" opacity="0.8"/><line x1="275.57752664636365" y1="605.8262492430274" x2="294.45957319203313" y2="600.8262492430274" stroke="#3a6590" stroke-width="1.2" opacity="0.8"/><line x1="285.0185499191984" y1="634.0144190391806" x2="285.0185499191984" y2="650.2701647937578" stroke="#3a6590" stroke-width="1.5" opacity="0.8"/><line x1="278.355622490286" y1="641.2433299427231" x2="291.6814773481108" y2="636.2433299427231" stroke="#3a6590" stroke-width="1.2" opacity="0.8"/><line x1="285.0185499191984" y1="634.0144190391806" x2="290.57098944329204" y2="642.1422919164692" stroke="#3a6590" stroke-width="1.2" opacity="0.8"/><line x1="281.68708620474223" y1="650.2701647937578" x2="289.4605015384733" y2="643.7678664919268" stroke="#3a6590" stroke-width="1.1" opacity="0.8"/><line x1="285.0185499191984" y1="675.2537767633629" x2="285.0185499191984" y2="696.0450210052376" stroke="#3a6590" stroke-width="1.5" opacity="0.8"/><line x1="272.766282544355" y1="684.2329993738898" x2="297.27081729404176" y2="679.2329993738898" stroke="#3a6590" stroke-width="1.2" opacity="0.8"/><line x1="278.89241623177674" y1="696.0450210052376" x2="293.18672816909395" y2="687.7285233084878" stroke="#3a6590" stroke-width="1.1" opacity="0.8"/><line x1="285.0185499191984" y1="716.4931344875454" x2="285.0185499191984" y2="737.4557806920579" stroke="#3a6590" stroke-width="1.5" opacity="0.8"/><line x1="285.0185499191984" y1="716.4931344875454" x2="294.2304910866778" y2="726.9744575898017" stroke="#3a6590" stroke-width="1.2" opacity="0.8"/><line x1="285.0185499191984" y1="757.7324922117278" x2="285.0185499191984" y2="776.9528621453666" stroke="#3a6590" stroke-width="1.5" opacity="0.8"/><line x1="278.8146994767479" y1="767.0725986963693" x2="291.2224003616489" y2="762.0725986963693" stroke="#3a6590" stroke-width="1.2" opacity="0.8"/><line x1="285.0185499191984" y1="798.9718499359103" x2="285.0185499191984" y2="819.2169447507138" stroke="#3a6590" stroke-width="1.5" opacity="0.8"/><line x1="285.0185499191984" y1="798.9718499359103" x2="293.38639774483175" y2="809.094397343312" stroke="#3a6590" stroke-width="1.2" opacity="0.8"/><line x1="285.0185499191984" y1="840.2112076600927" x2="285.0185499191984" y2="860.2532998111012" stroke="#3a6590" stroke-width="1.5" opacity="0.8"/><line x1="271.9599237964257" y1="847.988132093736" x2="298.0771760419711" y2="842.988132093736" stroke="#3a6590" stroke-width="1.2" opacity="0.8"/><line x1="278.48923685781205" y1="860.2532998111012" x2="293.7243006677135" y2="852.2364629506978" stroke="#3a6590" stroke-width="1.1" opacity="0.8"/><line x1="285.0185499191984" y1="881.4505653842751" x2="285.0185499191984" y2="900.6950727361653" stroke="#3a6590" stroke-width="1.5" opacity="0.8"/><line x1="275.3427517351463" y1="893.8990904896556" x2="294.6943481032505" y2="888.8990904896556" stroke="#3a6590" stroke-width="1.2" opacity="0.8"/><line x1="285.0185499191984" y1="881.4505653842751" x2="293.08171507257515" y2="891.0728190602202" stroke="#3a6590" stroke-width="1.2" opacity="0.8"/><line x1="285.0185499191984" y1="922.6899231084576" x2="285.0185499191984" y2="940.6406542727677" stroke="#3a6590" stroke-width="1.5" opacity="0.8"/><line x1="272.4280589991949" y1="933.4612752458356" x2="297.6090408392019" y2="928.4612752458356" stroke="#3a6590" stroke-width="1.2" opacity="0.8"/><line x1="285.0185499191984" y1="922.6899231084576" x2="295.510625685868" y2="931.6652886906127" stroke="#3a6590" stroke-width="1.2" opacity="0.8"/><line x1="278.72330445919664" y1="940.6406542727677" x2="293.41221053253406" y2="933.4603618070437" stroke="#3a6590" stroke-width="1.1" opacity="0.8"/><line x1="834.0518232213922" y1="15.424053176443877" x2="834.0518232213922" y2="33.45949199390397" stroke="#3a6590" stroke-width="1.5" opacity="0.8"/><line x1="834.0518232213922" y1="56.66341090062632" x2="834.0518232213922" y2="75.64285851595922" stroke="#3a6590" stroke-width="1.5" opacity="0.8"/><line x1="826.0750990553416" y1="65.5036021250302" x2="842.0285473874427" y2="60.5036021250302" stroke="#3a6590" stroke-width="1.2" opacity="0.8"/><line x1="830.0634611383668" y1="75.64285851595922" x2="839.3696393320926" y2="68.05107946982606" stroke="#3a6590" stroke-width="1.1" opacity="0.8"/><line x1="834.0518232213922" y1="97.90276862480876" x2="834.0518232213922" y2="119.39520132993546" stroke="#3a6590" stroke-width="1.5" opacity="0.8"/><line x1="824.6187963205047" y1="106.63076212153136" x2="843.4848501222797" y2="101.63076212153136" stroke="#3a6590" stroke-width="1.2" opacity="0.8"/><line x1="834.0518232213922" y1="97.90276862480876" x2="841.9126789721317" y2="108.64898497737211" stroke="#3a6590" stroke-width="1.2" opacity="0.8"/><line x1="834.0518232213922" y1="139.1421263489912" x2="834.0518232213922" y2="156.61359932106387" stroke="#3a6590" stroke-width="1.5" opacity="0.8"/><line x1="825.1397559875279" y1="146.2776273207143" x2="842.9638904552564" y2="141.2776273207143" stroke="#3a6590" stroke-width="1.2" opacity="0.8"/><line x1="834.0518232213922" y1="139.1421263489912" x2="841.478545916279" y2="147.87786283502754" stroke="#3a6590" stroke-width="1.2" opacity="0.8"/><line x1="834.0518232213922" y1="180.38148407317362" x2="834.0518232213922" y2="196.4546646033939" stroke="#3a6590" stroke-width="1.5" opacity="0.8"/><line x1="827.070504933282" y1="186.25445431488265" x2="841.0331415095023" y2="181.25445431488265" stroke="#3a6590" stroke-width="1.2" opacity="0.8"/><line x1="834.0518232213922" y1="180.38148407317362" x2="839.869588461484" y2="188.41807433828376" stroke="#3a6590" stroke-width="1.2" opacity="0.8"/><line x1="830.561164077337" y1="196.4546646033939" x2="838.7060354134657" y2="190.0253923913058" stroke="#3a6590" stroke-width="1.1" opacity="0.8"/><line x1="834.0518232213922" y1="221.6208417973561" x2="834.0518232213922" y2="238.5537239736026" stroke="#3a6590" stroke-width="1.5" opacity="0.8"/><line x1="821.7981208261691" y1="232.3706974121631" x2="846.3055256166152" y2="227.3706974121631" stroke="#3a6590" stroke-width="1.2" opacity="0.8"/><line x1="834.0518232213922" y1="262.86019952153856" x2="834.0518232213922" y2="282.18086730433697" stroke="#3a6590" stroke-width="1.5" opacity="0.8"/><line x1="825.579220240622" y1="271.45852673004504" x2="842.5244262021623" y2="266.45852673004504" stroke="#3a6590" stroke-width="1.2" opacity="0.8"/><line x1="829.815521731007" y1="282.18086730433697" x2="839.7002252085723" y2="274.4526001912176" stroke="#3a6590" stroke-width="1.1" opacity="0.8"/><line x1="834.0518232213922" y1="304.099557245721" x2="834.0518232213922" y2="323.55026291088467" stroke="#3a6590" stroke-width="1.5" opacity="0.8"/><line x1="824.6115081844508" y1="316.33125966213254" x2="843.4921382583335" y2="311.33125966213254" stroke="#3a6590" stroke-width="1.2" opacity="0.8"/><line x1="829.3316657029216" y1="323.55026291088467" x2="840.345366579353" y2="315.7699806448192" stroke="#3a6590" stroke-width="1.1" opacity="0.8"/><line x1="834.0518232213922" y1="345.3389149699034" x2="834.0518232213922" y2="366.9031849787244" stroke="#3a6590" stroke-width="1.5" opacity="0.8"/><line x1="826.8077578931704" y1="355.7762456468178" x2="841.2958885496139" y2="350.7762456468178" stroke="#3a6590" stroke-width="1.2" opacity="0.8"/><line x1="830.4297905572813" y1="366.9031849787244" x2="838.8812001068734" y2="358.277476975196" stroke="#3a6590" stroke-width="1.1" opacity="0.8"/><line x1="834.0518232213922" y1="386.57827269408585" x2="834.0518232213922" y2="404.08597269730376" stroke="#3a6590" stroke-width="1.5" opacity="0.8"/><line x1="834.0518232213922" y1="427.81763041826827" x2="834.0518232213922" y2="449.7824064187419" stroke="#3a6590" stroke-width="1.5" opacity="0.8"/><line x1="834.0518232213922" y1="427.81763041826827" x2="841.6067578005727" y2="438.8000184185051" stroke="#3a6590" stroke-width="1.2" opacity="0.8"/><line x1="834.0518232213922" y1="469.05698814245073" x2="834.0518232213922" y2="487.7149608256495" stroke="#3a6590" stroke-width="1.5" opacity="0.8"/><line x1="824.3805295173668" y1="476.09768314152376" x2="843.7231169254176" y2="471.09768314152376" stroke="#3a6590" stroke-width="1.2" opacity="0.8"/><line x1="834.0518232213922" y1="510.2963458666332" x2="834.0518232213922" y2="531.4249451233759" stroke="#3a6590" stroke-width="1.5" opacity="0.8"/><line x1="827.479201993405" y1="522.8282387119481" x2="840.6244444493793" y2="517.8282387119481" stroke="#3a6590" stroke-width="1.2" opacity="0.8"/><line x1="834.0518232213922" y1="551.5357035908156" x2="834.0518232213922" y2="568.2147256249801" stroke="#3a6590" stroke-width="1.5" opacity="0.8"/><line x1="834.0518232213922" y1="592.7750613149981" x2="834.0518232213922" y2="614.0051347651313" stroke="#3a6590" stroke-width="1.5" opacity="0.8"/><line x1="834.0518232213922" y1="592.7750613149981" x2="840.2747702160973" y2="603.3900980400647" stroke="#3a6590" stroke-width="1.2" opacity="0.8"/><line x1="834.0518232213922" y1="634.0144190391806" x2="834.0518232213922" y2="654.206292637093" stroke="#3a6590" stroke-width="1.5" opacity="0.8"/><line x1="834.0518232213922" y1="634.0144190391806" x2="841.9835178328335" y2="644.1103558381368" stroke="#3a6590" stroke-width="1.2" opacity="0.8"/><line x1="834.0518232213922" y1="675.2537767633629" x2="834.0518232213922" y2="691.9245620465671" stroke="#3a6590" stroke-width="1.5" opacity="0.8"/><line x1="823.168209967076" y1="685.1357432437615" x2="844.9354364757083" y2="680.1357432437615" stroke="#3a6590" stroke-width="1.2" opacity="0.8"/><line x1="834.0518232213922" y1="716.4931344875454" x2="834.0518232213922" y2="733.4155693451262" stroke="#3a6590" stroke-width="1.5" opacity="0.8"/><line x1="827.4203832298174" y1="726.0226121523416" x2="840.683263212967" y2="721.0226121523416" stroke="#3a6590" stroke-width="1.2" opacity="0.8"/><line x1="830.7361032256048" y1="733.4155693451262" x2="838.4727832157753" y2="726.6465954020939" stroke="#3a6590" stroke-width="1.1" opacity="0.8"/><line x1="834.0518232213922" y1="757.7324922117278" x2="834.0518232213922" y2="777.2933613350489" stroke="#3a6590" stroke-width="1.5" opacity="0.8"/><line x1="828.5985147357576" y1="777.2933613350489" x2="841.3229012022383" y2="769.4690136857205" stroke="#3a6590" stroke-width="1.1" opacity="0.8"/><line x1="834.0518232213922" y1="798.9718499359103" x2="834.0518232213922" y2="817.9064123968953" stroke="#3a6590" stroke-width="1.5" opacity="0.8"/><line x1="820.1279339123174" y1="806.0553213703226" x2="847.9757125304669" y2="801.0553213703226" stroke="#3a6590" stroke-width="1.2" opacity="0.8"/><line x1="834.0518232213922" y1="798.9718499359103" x2="845.6550643122878" y2="808.4391311664028" stroke="#3a6590" stroke-width="1.2" opacity="0.8"/><line x1="827.0898785668548" y1="817.9064123968953" x2="843.3344160941086" y2="810.3325874125013" stroke="#3a6590" stroke-width="1.1" opacity="0.8"/><line x1="834.0518232213922" y1="840.2112076600927" x2="834.0518232213922" y2="858.609144557445" stroke="#3a6590" stroke-width="1.5" opacity="0.8"/><line x1="834.0518232213922" y1="840.2112076600927" x2="844.2189086445264" y2="849.4101761087688" stroke="#3a6590" stroke-width="1.2" opacity="0.8"/><line x1="834.0518232213922" y1="881.4505653842751" x2="834.0518232213922" y2="900.1565510044273" stroke="#3a6590" stroke-width="1.5" opacity="0.8"/><line x1="820.947082298401" y1="891.7663342888405" x2="847.1565641443833" y2="886.7663342888405" stroke="#3a6590" stroke-width="1.2" opacity="0.8"/><line x1="834.0518232213922" y1="881.4505653842751" x2="844.9724406572182" y2="890.8035581943512" stroke="#3a6590" stroke-width="1.2" opacity="0.8"/><line x1="834.0518232213922" y1="922.6899231084576" x2="834.0518232213922" y2="939.8595215737773" stroke="#3a6590" stroke-width="1.5" opacity="0.8"/><line x1="827.0433844281017" y1="931.6406325013393" x2="841.0602620146826" y2="926.6406325013393" stroke="#3a6590" stroke-width="1.2" opacity="0.8"/><line x1="834.0518232213922" y1="922.6899231084576" x2="839.8921888824675" y2="931.2747223411175" stroke="#3a6590" stroke-width="1.2" opacity="0.8"/><line x1="350.0185499191984" y1="1001.9292808326401" x2="350.0185499191984" y2="1023.6966943212293" stroke="#3a6590" stroke-width="1.5" opacity="0.8"/><line x1="342.58181785542996" y1="1012.0842474384286" x2="357.4552819829668" y2="1008.0842474384286" stroke="#3a6590" stroke-width="1.2" opacity="0.8"/><line x1="381.37806944078363" y1="1001.9292808326401" x2="381.37806944078363" y2="1019.1336102236502" stroke="#3a6590" stroke-width="1.5" opacity="0.8"/><line x1="372.44401711942226" y1="1011.2823619077997" x2="390.312121762145" y2="1007.2823619077997" stroke="#3a6590" stroke-width="1.2" opacity="0.8"/><line x1="412.73758896236893" y1="1001.9292808326401" x2="412.73758896236893" y2="1022.7710399453036" stroke="#3a6590" stroke-width="1.5" opacity="0.8"/><line x1="444.09710848395423" y1="1001.9292808326401" x2="444.09710848395423" y2="1023.5388045536794" stroke="#3a6590" stroke-width="1.5" opacity="0.8"/><line x1="432.5724234466319" y1="1015.166809148555" x2="455.6217935212766" y2="1011.166809148555" stroke="#3a6590" stroke-width="1.2" opacity="0.8"/><line x1="444.09710848395423" y1="1001.9292808326401" x2="453.3168565138121" y2="1012.7340426931597" stroke="#3a6590" stroke-width="1.1" opacity="0.8"/><line x1="475.45662800553947" y1="1001.9292808326401" x2="475.45662800553947" y2="1023.0235843507081" stroke="#3a6590" stroke-width="1.5" opacity="0.8"/><line x1="506.8161475271247" y1="1001.9292808326401" x2="506.8161475271247" y2="1019.9426281454481" stroke="#3a6590" stroke-width="1.5" opacity="0.8"/><line x1="500.15987980871273" y1="1007.4721926999654" x2="513.4724152455367" y2="1003.4721926999654" stroke="#3a6590" stroke-width="1.2" opacity="0.8"/><line x1="538.17566704871" y1="1001.9292808326401" x2="538.17566704871" y2="1019.1050366454266" stroke="#3a6590" stroke-width="1.5" opacity="0.8"/><line x1="531.1200438773246" y1="1013.4579436351129" x2="545.2312902200954" y2="1009.4579436351129" stroke="#3a6590" stroke-width="1.2" opacity="0.8"/><line x1="538.17566704871" y1="1001.9292808326401" x2="543.8201655858184" y2="1010.5171587390333" stroke="#3a6590" stroke-width="1.1" opacity="0.8"/><line x1="569.5351865702953" y1="1001.9292808326401" x2="569.5351865702953" y2="1020.7833906982534" stroke="#3a6590" stroke-width="1.5" opacity="0.8"/><line x1="561.7369261469405" y1="1011.6067069568842" x2="577.3334469936501" y2="1007.6067069568842" stroke="#3a6590" stroke-width="1.2" opacity="0.8"/><line x1="600.8947060918806" y1="1001.9292808326401" x2="600.8947060918806" y2="1020.9673527067035" stroke="#3a6590" stroke-width="1.5" opacity="0.8"/><line x1="600.8947060918806" y1="1001.9292808326401" x2="608.8108568374438" y2="1011.4483167696718" stroke="#3a6590" stroke-width="1.1" opacity="0.8"/><line x1="632.2542256134659" y1="1001.9292808326401" x2="632.2542256134659" y2="1022.0541036350161" stroke="#3a6590" stroke-width="1.5" opacity="0.8"/><line x1="620.3841897797868" y1="1012.6918638411289" x2="644.124261447145" y2="1008.6918638411289" stroke="#3a6590" stroke-width="1.2" opacity="0.8"/><line x1="663.6137451350511" y1="1001.9292808326401" x2="663.6137451350511" y2="1019.3104376455277" stroke="#3a6590" stroke-width="1.5" opacity="0.8"/><line x1="654.6261821179938" y1="1007.4501822748136" x2="672.6013081521083" y2="1003.4501822748136" stroke="#3a6590" stroke-width="1.2" opacity="0.8"/><line x1="663.6137451350511" y1="1001.9292808326401" x2="670.8037955486969" y2="1010.6198592390839" stroke="#3a6590" stroke-width="1.1" opacity="0.8"/><line x1="694.9732646566363" y1="1001.9292808326401" x2="694.9732646566363" y2="1023.1315241919339" stroke="#3a6590" stroke-width="1.5" opacity="0.8"/><line x1="685.5238188322646" y1="1011.7597500728695" x2="704.4227104810079" y2="1007.7597500728695" stroke="#3a6590" stroke-width="1.2" opacity="0.8"/><line x1="726.3327841782216" y1="1001.9292808326401" x2="726.3327841782216" y2="1019.346578625261" stroke="#3a6590" stroke-width="1.5" opacity="0.8"/><line x1="719.7871783287469" y1="1011.7765444979249" x2="732.8783900276962" y2="1007.7765444979249" stroke="#3a6590" stroke-width="1.2" opacity="0.8"/><line x1="726.3327841782216" y1="1001.9292808326401" x2="731.5692688578013" y2="1010.6379297289506" stroke="#3a6590" stroke-width="1.1" opacity="0.8"/><line x1="757.6923036998069" y1="1001.9292808326401" x2="757.6923036998069" y2="1018.0302172626808" stroke="#3a6590" stroke-width="1.5" opacity="0.8"/><line x1="750.9161739562569" y1="1008.0755585167748" x2="764.4684334433568" y2="1004.0755585167748" stroke="#3a6590" stroke-width="1.2" opacity="0.8"/><line x1="757.6923036998069" y1="1001.9292808326401" x2="763.1132074946469" y2="1009.9797490476604" stroke="#3a6590" stroke-width="1.1" opacity="0.8"/><g class="links"><path d="M 572.3294555414514 459.8859847378198 Q 604.4563061210282 400.98293519793765 622.1864484239736 336.2732309243314" fill="none" stroke="#3a6590" stroke-linecap="round" stroke-width="2"/><path d="M 622.1864484239736 336.2732309243314 Q 615.7589871756905 290.2088692751161 598.9172750264347 246.85457993565757" fill="none" stroke="#3a6590" stroke-linecap="round" stroke-width="2"/><path d="M 622.1864484239736 336.2732309243314 Q 664.8189590986934 330.9212794840362 707.7855808018575 330.7120665146523" fill="none" stroke="#3a6590" stroke-linecap="round" stroke-width="1" stroke-dasharray="5 4"/><path d="M 598.9172750264347 246.85457993565757 Q 531.890935320317 251.78131653914144 465.4253899573027 241.82469926432836" fill="none" stroke="#3a6590" stroke-linecap="round" stroke-width="2"/><path d="M 572.3294555414514 459.8859847378198 Q 577.2967956470451 635.3616418759465 622.4581389740172 804.9990015131604" fill="none" stroke="#3a6590" stroke-linecap="round" stroke-width="2"/><path d="M 572.3294555414514 459.8859847378198 Q 485.37123370355437 552.1871551414476 420.0185499191984 660.8621988509877" fill="none" stroke="#3a6590" stroke-linecap="round" stroke-width="1" stroke-dasharray="5 4"/><path d="M 622.4581389740172 804.9990015131604 Q 584.4175901793568 779.1343645582601 547.3912207329441 751.8376474841231" fill="none" stroke="#3a6590" stroke-linecap="round" stroke-width="0.8" stroke-dasharray="2 4"/><path d="M 622.4581389740172 804.9990015131604 Q 625.6338590731652 773.4008234049395 629.0659938821692 741.8294675810316" fill="none" stroke="#3a6590" stroke-linecap="round" stroke-width="1" stroke-dasharray="5 4"/><path d="M 622.4581389740172 804.9990015131604 Q 674.6232791932385 840.7640902917418 719.0518232213922 885.7801752500018" fill="none" stroke="#3a6590" stroke-linecap="round" stroke-width="0.8" stroke-dasharray="2 4"/><path d="M417.626,328.844L418.805,330.07C419.985,331.296,422.344,333.748,424.749,336.175C427.153,338.602,429.602,341.004,432.129,343.338C434.657,345.671,437.261,347.937,439.954,350.108C442.647,352.278,445.427,354.353,448.283,356.33C451.139,358.307,454.071,360.187,457.046,361.992C460.021,363.797,463.039,365.528,466.059,367.228C469.078,368.927,472.098,370.595,475.072,372.281C478.047,373.968,480.978,375.672,483.826,377.443C486.674,379.213,489.44,381.048,492.103,382.984C494.766,384.92,497.326,386.956,499.783,389.111C502.239,391.265,504.592,393.538,506.859,395.926C509.126,398.313,511.306,400.816,513.433,403.409C515.56,406.002,517.632,408.685,519.692,411.414C521.752,414.144,523.8,416.92,525.878,419.692C527.957,422.464,530.067,425.231,532.245,427.945C534.423,430.659,536.669,433.32,539.002,435.894C541.335,438.467,543.755,440.954,546.258,443.34C548.761,445.727,551.347,448.013,553.991,450.214C556.634,452.416,559.335,454.531,562.055,456.598C564.775,458.665,567.514,460.684,568.883,461.694L570.253,462.703" fill="none" stroke="#3a6590" stroke-width="1.2" stroke-linecap="round"/><path d="M422.67,323.991L423.838,325.204C425.006,326.418,427.342,328.846,429.697,331.225C432.052,333.604,434.427,335.934,436.858,338.181C439.288,340.427,441.774,342.59,444.338,344.658C446.903,346.726,449.547,348.699,452.276,350.587C455.005,352.475,457.818,354.278,460.702,356.026C463.585,357.774,466.538,359.466,469.528,361.148C472.517,362.83,475.544,364.502,478.563,366.214C481.582,367.927,484.593,369.68,487.552,371.521C490.511,373.363,493.417,375.293,496.233,377.342C499.05,379.392,501.776,381.561,504.392,383.855C507.008,386.15,509.514,388.57,511.914,391.095C514.313,393.619,516.605,396.249,518.817,398.942C521.029,401.636,523.16,404.393,525.252,407.163C527.343,409.932,529.395,412.715,531.453,415.459C533.511,418.204,535.574,420.911,537.683,423.542C539.793,426.172,541.947,428.727,544.175,431.186C546.403,433.645,548.704,436.009,551.088,438.282C553.473,440.555,555.942,442.738,558.486,444.854C561.031,446.971,563.651,449.021,566.317,451.046C568.983,453.071,571.694,455.07,573.05,456.069L574.406,457.069" fill="none" stroke="#3a6590" stroke-width="1.2" stroke-linecap="round"/><path d="M569.721,462.22L570.538,463.132C571.354,464.044,572.987,465.868,574.672,467.668C576.357,469.468,578.095,471.244,579.917,472.948C581.738,474.652,583.644,476.284,585.639,477.812C587.635,479.34,589.721,480.763,591.881,482.079C594.04,483.394,596.273,484.601,598.544,485.724C600.815,486.848,603.124,487.888,605.428,488.891C607.731,489.894,610.03,490.859,612.28,491.838C614.53,492.817,616.731,493.811,618.848,494.865C620.966,495.919,623,497.033,624.935,498.243C626.871,499.453,628.707,500.758,630.45,502.178C632.193,503.597,633.842,505.132,635.418,506.783C636.994,508.434,638.497,510.201,639.957,512.061C641.418,513.922,642.836,515.877,644.249,517.882C645.663,519.887,647.073,521.944,648.521,523.997C649.969,526.051,651.454,528.102,653.014,530.099C654.573,532.096,656.207,534.038,657.931,535.887C659.656,537.736,661.472,539.491,663.372,541.137C665.272,542.783,667.255,544.318,669.292,545.758C671.329,547.197,673.42,548.541,675.523,549.827C677.627,551.114,679.743,552.344,680.802,552.959L681.86,553.574" fill="none" stroke="#3a6590" stroke-width="1.2" stroke-linecap="round"/><path d="M574.938,457.552L575.737,458.445C576.536,459.338,578.133,461.124,579.747,462.851C581.36,464.577,582.989,466.244,584.668,467.819C586.347,469.393,588.076,470.876,589.881,472.259C591.685,473.641,593.566,474.924,595.533,476.12C597.499,477.315,599.553,478.423,601.682,479.474C603.812,480.524,606.018,481.517,608.271,482.496C610.524,483.475,612.825,484.441,615.13,485.446C617.435,486.451,619.745,487.495,622.016,488.63C624.287,489.765,626.518,490.99,628.67,492.34C630.821,493.689,632.893,495.162,634.86,496.765C636.827,498.367,638.688,500.098,640.445,501.932C642.201,503.766,643.852,505.704,645.422,507.698C646.993,509.693,648.483,511.744,649.933,513.799C651.384,515.853,652.795,517.911,654.209,519.919C655.623,521.928,657.042,523.888,658.501,525.761C659.96,527.635,661.46,529.421,663.029,531.106C664.597,532.79,666.234,534.373,667.953,535.86C669.672,537.348,671.473,538.742,673.355,540.068C675.237,541.394,677.198,542.652,679.215,543.883C681.232,545.114,683.304,546.318,684.34,546.92L685.377,547.522" fill="none" stroke="#3a6590" stroke-width="1.2" stroke-linecap="round"/><path d="M 465.4253899573027 241.82469926432836 Q 438.9848420833656 282.08594048408736 420.14818321140996 326.4170852806201" fill="none" stroke="#3a6590" stroke-linecap="round" stroke-width="1" stroke-dasharray="5 4"/><path d="M 572.3294555414514 459.8859847378198 Q 614.5687792421905 435.86486504566534 657.8697992765866 413.8150051381405" fill="none" stroke="#3a6590" stroke-linecap="round" stroke-width="2"/><path d="M 572.3294555414514 459.8859847378198 Q 557.8822891016886 498.0487355881066 551.2396117525554 538.3102681997023" fill="none" stroke="#3a6590" stroke-linecap="round" stroke-width="2"/><path d="M 572.3294555414514 459.8859847378198 Q 620.7417625107479 461.21732588148586 669.1551027822654 462.5105463129957" fill="none" stroke="#3a6590" stroke-linecap="round" stroke-width="2"/><path d="M 551.2396117525554 538.3102681997023 Q 588.9044196562777 515.4978290381194 626.7353836264185 492.9620064435232" fill="none" stroke="#3a6590" stroke-linecap="round" stroke-width="1" stroke-dasharray="5 4"/><path d="M 572.3294555414514 459.8859847378198 Q 589.1990926397492 439.8361459062548 601.7922777631743 416.8580610981786" fill="none" stroke="#3a6590" stroke-linecap="round" stroke-width="2"/><path d="M 572.3294555414514 459.8859847378198 Q 548.8664647106174 480.95253903822777 522.1336196413525 497.6757756664204" fill="none" stroke="#3a6590" stroke-linecap="round" stroke-width="1" stroke-dasharray="5 4"/><path d="M 598.9172750264347 246.85457993565757 Q 546.8282642232551 215.66438271058416 491.2007551063346 191.34003937228096" fill="none" stroke="#3a6590" stroke-linecap="round" stroke-width="0.8" stroke-dasharray="2 4"/><path d="M 491.2007551063346 191.34003937228096 Q 464.91917447153685 174.3339897698333 437.2248614482273 159.74110691855162" fill="none" stroke="#3a6590" stroke-linecap="round" stroke-width="1" stroke-dasharray="5 4"/><path d="M 491.2007551063346 191.34003937228096 Q 484.6151382519807 167.04093004236134 483.927486266174 141.87459939353306" fill="none" stroke="#3a6590" stroke-linecap="round" stroke-width="0.8" stroke-dasharray="2 4"/><path d="M 483.927486266174 141.87459939353306 Q 479.43170663796457 192.7299129440798 465.4253899573027 241.82469926432836" fill="none" stroke="#3a6590" stroke-linecap="round" stroke-width="0.8" stroke-dasharray="2 4"/><path d="M 615.8723019633093 85.42405317644388 Q 589.0957795790332 86.4774012037637 562.8723723144692 91.99325150078043" fill="none" stroke="#3a6590" stroke-linecap="round" stroke-width="1" stroke-dasharray="5 4"/><path d="M 598.9172750264347 246.85457993565757 Q 651.086210457254 236.31585579876375 702.5592353371535 222.7810768891628" fill="none" stroke="#3a6590" stroke-linecap="round" stroke-width="0.8" stroke-dasharray="2 4"/><path d="M 622.4581389740172 804.9990015131604 Q 585.3961781328439 802.2240675443676 548.2326066894428 801.8263773445476" fill="none" stroke="#3a6590" stroke-linecap="round" stroke-width="0.8" stroke-dasharray="2 4"/><path d="M 548.2326066894428 801.8263773445476 Q 546.5200974542984 776.8537556364569 547.3912207329441 751.8376474841231" fill="none" stroke="#3a6590" stroke-linecap="round" stroke-width="1" stroke-dasharray="5 4"/><path d="M 598.9172750264347 246.85457993565757 Q 616.7953888738668 167.12666037415266 615.8723019633093 85.42405317644388" fill="none" stroke="#3a6590" stroke-linecap="round" stroke-width="2"/><path d="M 622.4581389740172 804.9990015131604 Q 619.3566855396109 849.7060685720694 626.6126042114332 893.9292808326401" fill="none" stroke="#3a6590" stroke-linecap="round" stroke-width="2"/><path d="M 598.9172750264347 246.85457993565757 Q 585.4707300464811 225.70569605364096 569.3336211402847 206.53074944348057" fill="none" stroke="#3a6590" stroke-linecap="round" stroke-width="1" stroke-dasharray="5 4"/><path d="M 569.3336211402847 206.53074944348057 Q 614.4438642689798 197.44920914565833 658.5326816983826 184.27405878644998" fill="none" stroke="#3a6590" stroke-linecap="round" stroke-width="0.8" stroke-dasharray="2 4"/><path d="M 658.5326816983826 184.27405878644998 Q 681.4397872621669 202.5056190840964 702.5592353371535 222.7810768891628" fill="none" stroke="#3a6590" stroke-linecap="round" stroke-width="0.8" stroke-dasharray="2 4"/></g><g class="terrain"><circle cx="576.8270876417155" cy="437.39508629619354" r="1.2078003846807406" fill="#3a6590" opacity="0.4"/><circle cx="563.1963424915666" cy="430.22046427085274" r="0.9222635303856805" fill="#3a6590" opacity="0.4"/><circle cx="567.3371497607077" cy="423.7724204289841" r="1.2615911417640746" fill="#3a6590" opacity="0.4"/><circle cx="567.8375291014308" cy="430.466819193505" r="0.8031469687819481" fill="#3a6590" opacity="0.4"/><circle cx="577.7794476943309" cy="433.36255062028044" r="0.8759803169639782" fill="#3a6590" opacity="0.4"/><circle cx="557.978353303879" cy="431.8105385865199" r="1.2875393094262109" fill="#3a6590" opacity="0.4"/><circle cx="683.9263773395943" cy="406.944527060626" r="1.2762653171783314" fill="#3a6590" opacity="0.4"/><circle cx="695.5255224763679" cy="399.7346249044816" r="0.8594362537376583" fill="#3a6590" opacity="0.4"/><circle cx="682.9348625953572" cy="400.0102617078404" r="0.8922289858572185" fill="#3a6590" opacity="0.4"/><circle cx="676.6023575033324" cy="399.02221709573075" r="1.0922492781654" fill="#3a6590" opacity="0.4"/><circle cx="684.3516139577406" cy="396.2962543376665" r="1.2982734670629725" fill="#3a6590" opacity="0.4"/><circle cx="538.0001089614311" cy="561.3962908524528" r="1.07490842808038" fill="#3a6590" opacity="0.4"/><circle cx="527.241379408581" cy="563.0237426075593" r="1.0342836938332767" fill="#3a6590" opacity="0.4"/><circle cx="540.2908929273913" cy="566.0283732141808" r="1.1176964338636026" fill="#3a6590" opacity="0.4"/><circle cx="525.379607666699" cy="560.5799425195411" r="1.2999527119798586" fill="#3a6590" opacity="0.4"/><circle cx="523.5621327016929" cy="556.6669758434847" r="1.12221863407176" fill="#3a6590" opacity="0.4"/><circle cx="530.846406357778" cy="566.0445853646353" r="0.9547322324477137" fill="#3a6590" opacity="0.4"/><circle cx="697.9470626523588" cy="462.87711055557025" r="0.865080747473985" fill="#3a6590" opacity="0.4"/><circle cx="692.5050608383361" cy="468.01998124251855" r="1.072272806498222" fill="#3a6590" opacity="0.4"/><circle cx="692.4644222816322" cy="467.191416051041" r="0.8501600139541552" fill="#3a6590" opacity="0.4"/><circle cx="698.6164635287467" cy="462.9107684900869" r="0.9809520582901314" fill="#3a6590" opacity="0.4"/><circle cx="709.1492432018612" cy="459.5368930881728" r="1.1375233678380028" fill="#3a6590" opacity="0.4"/><circle cx="661.3265046699955" cy="481.8518037354755" r="1.164229403086938" fill="#3a6590" opacity="0.4"/><circle cx="644.2087443190678" cy="479.99672072811006" r="1.22835517518688" fill="#3a6590" opacity="0.4"/><circle cx="645.409173026593" cy="471.89468837959646" r="0.945469157374464" fill="#3a6590" opacity="0.4"/><circle cx="644.4434674250945" cy="484.29131349233865" r="1.0465163902379573" fill="#3a6590" opacity="0.4"/><circle cx="649.458723179908" cy="484.83804913667916" r="1.2013780584791676" fill="#3a6590" opacity="0.4"/><circle cx="620.4926314983911" cy="396.40658999330145" r="1.2837848868919537" fill="#3a6590" opacity="0.4"/><circle cx="622.1714278977759" cy="396.6725106472407" r="0.8637381640262902" fill="#3a6590" opacity="0.4"/><circle cx="619.3385472052194" cy="388.26576989612323" r="0.8213067339500413" fill="#3a6590" opacity="0.4"/><circle cx="621.6684835996873" cy="389.26503535828334" r="1.0341130685526878" fill="#3a6590" opacity="0.4"/><circle cx="486.9180850564003" cy="509.67818817328225" r="1.008035940071568" fill="#3a6590" opacity="0.4"/><circle cx="492.34150787912904" cy="522.2692641114772" r="0.9981083233840764" fill="#3a6590" opacity="0.4"/><circle cx="487.15574525952934" cy="516.1776942966462" r="0.907106868410483" fill="#3a6590" opacity="0.4"/><circle cx="487.1238101637423" cy="512.9996735138775" r="0.80752982578706" fill="#3a6590" opacity="0.4"/><circle cx="491.37615248472093" cy="521.3565711250485" r="0.929555206396617" fill="#3a6590" opacity="0.4"/><circle cx="487.5165677117616" cy="522.3096614053429" r="0.9420422747032717" fill="#3a6590" opacity="0.4"/><circle cx="613.2314224302928" cy="303.8084515672066" r="0.9723230009665713" fill="#3a6590" opacity="0.4"/><circle cx="607.094794877262" cy="311.48450351170084" r="1.276391876814887" fill="#3a6590" opacity="0.4"/><circle cx="612.6696417484592" cy="312.10334140098473" r="1.2590653837658465" fill="#3a6590" opacity="0.4"/><circle cx="617.8088899631213" cy="311.07536532020947" r="1.2485328694572673" fill="#3a6590" opacity="0.4"/><circle cx="736.9072066845066" cy="324.3479906314028" r="1.2467782279243693" fill="#3a6590" opacity="0.4"/><circle cx="728.9110292980141" cy="321.8362521783424" r="1.296344083105214" fill="#3a6590" opacity="0.4"/><circle cx="733.7674071734465" cy="321.7297022298885" r="1.0141815703362227" fill="#3a6590" opacity="0.4"/><circle cx="726.7614783273704" cy="323.79247566247113" r="0.8199573012068868" fill="#3a6590" opacity="0.4"/><circle cx="732.8229332232542" cy="333.2384907186938" r="0.855341049679555" fill="#3a6590" opacity="0.4"/><circle cx="619.3856997373589" cy="272.28930996423986" r="3.0600098655316854" fill="none" stroke="#3a6590" stroke-width="0.6" opacity="0.5"/><circle cx="607.2319150349537" cy="267.9674354550561" r="2.9546574245044432" fill="none" stroke="#3a6590" stroke-width="0.6" opacity="0.5"/><circle cx="624.9138463736276" cy="265.9156287899812" r="2.618658198919265" fill="none" stroke="#3a6590" stroke-width="0.6" opacity="0.5"/><circle cx="609.8464769683725" cy="267.84073657097747" r="3.0153469862170206" fill="none" stroke="#3a6590" stroke-width="0.6" opacity="0.5"/><circle cx="551.2665090326556" cy="204.26222409097264" r="1.813435218360618" fill="none" stroke="#3a6590" stroke-width="0.6" opacity="0.5"/><circle cx="541.92840310705" cy="210.6901629882002" r="2.5127022845482516" fill="none" stroke="#3a6590" stroke-width="0.6" opacity="0.5"/><circle cx="547.6992547691789" cy="192.8862001456181" r="2.611913603872857" fill="none" stroke="#3a6590" stroke-width="0.6" opacity="0.5"/><circle cx="466.9820856348802" cy="193.94475333995453" r="2.9672061045411056" fill="none" stroke="#3a6590" stroke-width="0.6" opacity="0.5"/><circle cx="468.0916543342542" cy="197.23272738869332" r="2.515025832501896" fill="none" stroke="#3a6590" stroke-width="0.6" opacity="0.5"/><circle cx="471.246997578309" cy="215.71209921309875" r="2.3554800161628657" fill="none" stroke="#3a6590" stroke-width="0.6" opacity="0.5"/><circle cx="412.4956581715989" cy="155.80772323132828" r="2.345589587019966" fill="none" stroke="#3a6590" stroke-width="0.6" opacity="0.5"/><circle cx="409.87058130073865" cy="142.48307980128723" r="2.9409159560523084" fill="none" stroke="#3a6590" stroke-width="0.6" opacity="0.5"/><circle cx="412.88404791863275" cy="155.61767269509053" r="2.2315617565256716" fill="none" stroke="#3a6590" stroke-width="0.6" opacity="0.5"/><circle cx="676.9756714025007" cy="169.86624835024955" r="2.8757372457597734" fill="none" stroke="#3a6590" stroke-width="0.6" opacity="0.5"/><circle cx="667.2846609623214" cy="159.25807086345006" r="2.5200647086363244" fill="none" stroke="#3a6590" stroke-width="0.6" opacity="0.5"/><circle cx="665.0518387870391" cy="160.96995833668558" r="3.461794980594912" fill="none" stroke="#3a6590" stroke-width="0.6" opacity="0.5"/><circle cx="729.566263619203" cy="222.26191145420938" r="2.702711163338105" fill="none" stroke="#3a6590" stroke-width="0.6" opacity="0.5"/><circle cx="723.0352446404077" cy="220.01958577322594" r="2.6820877023478458" fill="none" stroke="#3a6590" stroke-width="0.6" opacity="0.5"/><circle cx="721.7790340560115" cy="227.28188337083307" r="3.018139254629997" fill="none" stroke="#3a6590" stroke-width="0.6" opacity="0.5"/><circle cx="494.82488273370825" cy="115.99680295721883" r="2.867618338690987" fill="none" stroke="#3a6590" stroke-width="0.6" opacity="0.5"/><circle cx="493.18523369302216" cy="116.35666795907369" r="2.0333743343812314" fill="none" stroke="#3a6590" stroke-width="0.6" opacity="0.5"/><circle cx="473.52408834037516" cy="112.63571771081061" r="3.00833051678154" fill="none" stroke="#3a6590" stroke-width="0.6" opacity="0.5"/><circle cx="476.10312656709334" cy="120.40063013746905" r="2.0198041422721773" fill="none" stroke="#3a6590" stroke-width="0.6" opacity="0.5"/><circle cx="435.4219164254237" cy="241.81391627074458" r="2.0439881379092504" fill="none" stroke="#3a6590" stroke-width="0.6" opacity="0.5"/><circle cx="444.806510397155" cy="237.77301703637306" r="1.9236265507411723" fill="none" stroke="#3a6590" stroke-width="0.6" opacity="0.5"/><circle cx="443.15273433819254" cy="244.84548933923173" r="1.7282743503027067" fill="none" stroke="#3a6590" stroke-width="0.6" opacity="0.5"/><circle cx="543.9407118665143" cy="94.86152840143605" r="3.084611178134378" fill="none" stroke="#3a6590" stroke-width="0.6" opacity="0.5"/><circle cx="537.3879172825515" cy="94.27969918353858" r="2.892887757273174" fill="none" stroke="#3a6590" stroke-width="0.6" opacity="0.5"/><circle cx="534.3880178665045" cy="98.4023894027075" r="2.870265737905257" fill="none" stroke="#3a6590" stroke-width="0.6" opacity="0.5"/><circle cx="530.2819225232813" cy="95.33008366323622" r="2.12362081218043" fill="none" stroke="#3a6590" stroke-width="0.6" opacity="0.5"/><path d="M 385.62704922668115 319.20878760062163 Q 388.32704922668114 317.76878760062164 391.02704922668113 319.20878760062163 Q 393.7270492266812 320.64878760062163 396.42704922668116 319.20878760062163" fill="none" stroke="#3a6590" stroke-width="0.6" opacity="0.5"/><path d="M 385.62704922668115 325.50878760062164 Q 388.32704922668114 324.06878760062165 391.02704922668113 325.50878760062164 Q 393.7270492266812 326.94878760062164 396.42704922668116 325.50878760062164" fill="none" stroke="#3a6590" stroke-width="0.6" opacity="0.5"/><circle cx="405.53684304321945" cy="675.5834085963177" r="2.394364065617083" fill="none" stroke="#3a6590" stroke-width="0.6" opacity="0.5"/><circle cx="410.88516750798266" cy="681.4078828733681" r="2.8926757884924057" fill="none" stroke="#3a6590" stroke-width="0.6" opacity="0.5"/><circle cx="408.10201085073527" cy="677.4060424489426" r="1.9441131934366118" fill="none" stroke="#3a6590" stroke-width="0.6" opacity="0.5"/><path d="M 632.8831771508325 831.5499514228692 L 638.0680841085019 819.3202887312056 L 643.2771119924461 831.5499514228692" fill="none" stroke="#3a6590" stroke-width="0.8" opacity="0.7"/><path d="M 620.577784911324 835.7219738252398 L 624.4203196099509 820.8203993269474 L 628.8546738617868 835.7219738252398" fill="none" stroke="#3a6590" stroke-width="0.8" opacity="0.7"/><circle cx="626.9114447729933" cy="713.9670649327148" r="1.0616227484541014" fill="#3a6590" opacity="0.4"/><circle cx="636.8187849140065" cy="709.4779138982107" r="1.244964932044968" fill="#3a6590" opacity="0.4"/><circle cx="627.05808005019" cy="711.5680992424299" r="0.9991979752201587" fill="#3a6590" opacity="0.4"/><circle cx="620.3418341698396" cy="706.8937493979741" r="1.2393663683440537" fill="#3a6590" opacity="0.4"/><circle cx="625.7781576076793" cy="717.7860945395936" r="0.8379615204874427" fill="#3a6590" opacity="0.4"/><circle cx="541.4276824256349" cy="732.0844247099282" r="2.4906659898722383" fill="none" stroke="#3a6590" stroke-width="0.6" opacity="0.5"/><circle cx="541.1528011849882" cy="733.7223817984892" r="2.417980602703268" fill="none" stroke="#3a6590" stroke-width="0.6" opacity="0.5"/><circle cx="531.8489280898592" cy="729.2728213086629" r="2.2170312754104873" fill="none" stroke="#3a6590" stroke-width="0.6" opacity="0.5"/><circle cx="531.8804817679865" cy="822.6616763962794" r="0.8902522552059964" fill="#3a6590" opacity="0.4"/><circle cx="534.682905183692" cy="822.3976307889808" r="0.8046790273627267" fill="#3a6590" opacity="0.4"/><circle cx="521.9353944804114" cy="823.0979716671992" r="1.1135567551944405" fill="#3a6590" opacity="0.4"/><circle cx="530.4945122856242" cy="819.483101800679" r="0.8882470298092813" fill="#3a6590" opacity="0.4"/><circle cx="525.5019258405608" cy="812.8305180190492" r="0.8686095834244043" fill="#3a6590" opacity="0.4"/><circle cx="532.6751200124216" cy="812.80994862005" r="1.0092495432589204" fill="#3a6590" opacity="0.4"/><path d="M 741.1928085889385 899.6562424567694 L 746.1491434172192 886.0194904456858 L 751.9182831271273 899.6562424567694" fill="none" stroke="#3a6590" stroke-width="0.8" opacity="0.7"/><path d="M 732.5877873161141 910.395661762487 L 738.0653587768909 896.4277759920641 L 742.5605793309671 910.395661762487" fill="none" stroke="#3a6590" stroke-width="0.8" opacity="0.7"/><circle cx="627.4607752956276" cy="61.545862427789345" r="3.381164760510413" fill="none" stroke="#3a6590" stroke-width="0.6" opacity="0.5"/><circle cx="627.8261735005548" cy="69.15791137464318" r="3.4860272771044736" fill="none" stroke="#3a6590" stroke-width="0.6" opacity="0.5"/><circle cx="618.6429115390703" cy="54.060771446725255" r="2.636333613233074" fill="none" stroke="#3a6590" stroke-width="0.6" opacity="0.5"/><circle cx="615.7342234837689" cy="57.259732999128076" r="2.7286294664430883" fill="none" stroke="#3a6590" stroke-width="0.6" opacity="0.5"/><circle cx="705.9126822027739" cy="576.8854789537264" r="1.2261288372799755" fill="#3a6590" opacity="0.4"/><circle cx="700.6581774997886" cy="564.471617228247" r="1.0482941246125848" fill="#3a6590" opacity="0.4"/><circle cx="704.5092940750893" cy="565.9924529296233" r="0.9824464511591942" fill="#3a6590" opacity="0.4"/><circle cx="702.9707978769567" cy="569.7437495690657" r="1.2279857099754736" fill="#3a6590" opacity="0.4"/><path d="M 630.1635432499921 923.5699429563139 L 635.1504607315068 908.4885047408152 L 639.8463187433484 923.5699429563139" fill="none" stroke="#3a6590" stroke-width="0.8" opacity="0.7"/><path d="M 615.9198657051827 924.2232541909603 L 621.3057241000597 910.2697182854396 L 626.1204997298939 924.2232541909603" fill="none" stroke="#3a6590" stroke-width="0.8" opacity="0.7"/></g><g class="nodes"><g transform="translate(572.3294555414514, 459.8859847378198)" class="node" style="cursor: pointer;"><circle r="6" fill="#3a6590" stroke="none" opacity="0.8"/><circle r="8" fill="none" stroke="#3a6590" stroke-width="1"/></g><g transform="translate(657.8697992765866, 413.8150051381405)" class="node" style="cursor: pointer;"><rect x="-2.5" y="-2.5" width="5" height="5" fill="#3a6590" stroke="none" opacity="0.7"/></g><g transform="translate(551.2396117525554, 538.3102681997023)" class="node" style="cursor: pointer;"><rect x="-2.5" y="-2.5" width="5" height="5" fill="#3a6590" stroke="none" opacity="0.7"/></g><g transform="translate(669.1551027822654, 462.5105463129957)" class="node" style="cursor: pointer;"><circle r="3.5" fill="#3a6590" stroke="none" opacity="0.7"/></g><g transform="translate(626.7353836264185, 492.9620064435232)" class="node" style="cursor: pointer;"><line x1="-4.2" y1="-4.2" x2="4.2" y2="4.2" stroke="#a03020" stroke-width="1.5"/><line x1="4.2" y1="-4.2" x2="-4.2" y2="4.2" stroke="#a03020" stroke-width="1.5"/></g><g transform="translate(601.7922777631743, 416.8580610981786)" class="node" style="cursor: pointer;"><circle r="5" fill="#3a6590" stroke="none" opacity="0.7"/></g><g transform="translate(522.1336196413525, 497.6757756664204)" class="node" style="cursor: pointer;"><rect x="-5" y="-5" width="10" height="10" fill="none" stroke="#3a6590" stroke-width="0.8" stroke-dasharray="2 2" opacity="0.7"/></g><g transform="translate(622.1864484239736, 336.2732309243314)" class="node" style="cursor: pointer;"><circle r="2" fill="#3a6590" opacity="0.6"/></g><g transform="translate(707.7855808018575, 330.7120665146523)" class="node" style="cursor: pointer;"><line x1="-6" y1="-6" x2="6" y2="6" stroke="#a03020" stroke-width="1.5"/><line x1="6" y1="-6" x2="-6" y2="6" stroke="#a03020" stroke-width="1.5"/></g><g transform="translate(598.9172750264347, 246.85457993565757)" class="node" style="cursor: pointer;"><circle r="5" fill="none" stroke="#3a6590" stroke-width="0.8"/></g><g transform="translate(569.3336211402847, 206.53074944348057)" class="node" style="cursor: pointer;"><circle r="5" fill="none" stroke="#3a6590" stroke-width="0.8"/><circle r="1.5" fill="#3a6590"/></g><g transform="translate(491.2007551063346, 191.34003937228096)" class="node" style="cursor: pointer;"><circle r="5" fill="#3a6590" stroke="none" opacity="0.7"/></g><g transform="translate(437.2248614482273, 159.74110691855162)" class="node" style="cursor: pointer;"><line x1="-6" y1="-6" x2="6" y2="6" stroke="#a03020" stroke-width="1.5"/><line x1="6" y1="-6" x2="-6" y2="6" stroke="#a03020" stroke-width="1.5"/></g><g transform="translate(658.5326816983826, 184.27405878644998)" class="node" style="cursor: pointer;"><line x1="-6.5" y1="-6.5" x2="6.5" y2="6.5" stroke="#a03020" stroke-width="2"/><line x1="6.5" y1="-6.5" x2="-6.5" y2="6.5" stroke="#a03020" stroke-width="2"/></g><g transform="translate(702.5592353371535, 222.7810768891628)" class="node" style="cursor: pointer;"><circle r="5" fill="#3a6590" stroke="none" opacity="0.7"/></g><g transform="translate(483.927486266174, 141.87459939353306)" class="node" style="cursor: pointer;"><circle r="5" fill="none" stroke="#3a6590" stroke-width="0.8"/><circle r="1.5" fill="#3a6590"/></g><g transform="translate(465.4253899573027, 241.82469926432836)" class="node" style="cursor: pointer;"><rect x="-5" y="-5" width="10" height="10" fill="none" stroke="#3a6590" stroke-width="1"/><line x1="0" y1="-5" x2="0" y2="-11" stroke="#3a6590" stroke-width="0.8"/><path d="M 0 -11 L 4 -9.5 L 0 -8" fill="#3a6590" opacity="0.7"/></g><g transform="translate(562.8723723144692, 91.99325150078043)" class="node" style="cursor: pointer;"><rect x="-5" y="-5" width="10" height="10" fill="none" stroke="#3a6590" stroke-width="0.8" stroke-dasharray="2 2" opacity="0.7"/></g><g transform="translate(420.14818321140996, 326.4170852806201)" class="node" style="cursor: pointer;"><circle r="5" fill="none" stroke="#3a6590" stroke-width="0.8"/></g><g transform="translate(420.0185499191984, 660.8621988509877)" class="node" style="cursor: pointer;"><circle r="5" fill="none" stroke="#3a6590" stroke-width="0.8"/><circle r="1.5" fill="#3a6590"/></g><g transform="translate(622.4581389740172, 804.9990015131604)" class="node" style="cursor: pointer;"><circle r="5" fill="none" stroke="#3a6590" stroke-width="0.8"/></g><g transform="translate(629.0659938821692, 741.8294675810316)" class="node" style="cursor: pointer;"><circle r="2" fill="#3a6590" opacity="0.6"/></g><g transform="translate(547.3912207329441, 751.8376474841231)" class="node" style="cursor: pointer;"><line x1="-6.5" y1="-6.5" x2="6.5" y2="6.5" stroke="#a03020" stroke-width="2"/><line x1="6.5" y1="-6.5" x2="-6.5" y2="6.5" stroke="#a03020" stroke-width="2"/></g><g transform="translate(548.2326066894428, 801.8263773445476)" class="node" style="cursor: pointer;"><line x1="0" y1="-8" x2="0" y2="6" stroke="#3a6590" stroke-width="1"/><circle cx="0" cy="-9" r="1.5" fill="#3a6590"/></g><g transform="translate(719.0518232213922, 885.7801752500018)" class="node" style="cursor: pointer;"><line x1="-6" y1="-6" x2="6" y2="6" stroke="#a03020" stroke-width="1.5"/><line x1="6" y1="-6" x2="-6" y2="6" stroke="#a03020" stroke-width="1.5"/></g><g transform="translate(615.8723019633093, 85.42405317644388)" class="node" style="cursor: pointer;"><circle r="2" fill="#3a6590" opacity="0.6"/></g><g transform="translate(683.6181884551656, 550.5479991083549)" class="node" style="cursor: pointer;"><circle r="2" fill="#3a6590" opacity="0.6"/></g><g transform="translate(626.6126042114332, 893.9292808326401)" class="node" style="cursor: pointer;"><circle r="2" fill="#3a6590" opacity="0.6"/></g></g><g class="labels"><text x="572.3294555414514" y="475.8859847378198" text-anchor="middle" font-family="'Palatino Linotype', 'Book Antiqua', Palatino, serif" font-size="16px" font-style="italic" fill="#3a6590" stroke="#f0e6cc" stroke-width="2.5" paint-order="stroke" letter-spacing="2.5px">Blackwater Crossing</text><text x="657.8697992765866" y="425.8150051381405" text-anchor="middle" font-family="'Palatino Linotype', 'Book Antiqua', Palatino, serif" font-size="10px" font-style="italic" fill="#6a90b0" stroke="#f0e6cc" stroke-width="2.5" paint-order="stroke">The Laughing Basilisk</text><text x="551.2396117525554" y="550.3102681997023" text-anchor="middle" font-family="'Palatino Linotype', 'Book Antiqua', Palatino, serif" font-size="10px" font-style="italic" fill="#6a90b0" stroke="#f0e6cc" stroke-width="2.5" paint-order="stroke">The Sweaty Mermaid</text><text x="669.1551027822654" y="474.5105463129957" text-anchor="middle" font-family="'Palatino Linotype', 'Book Antiqua', Palatino, serif" font-size="10px" font-style="italic" fill="#6a90b0" stroke="#f0e6cc" stroke-width="2.5" paint-order="stroke">The Twist</text><text x="626.7353836264185" y="504.9620064435232" text-anchor="middle" font-family="'Palatino Linotype', 'Book Antiqua', Palatino, serif" font-size="10px" font-style="italic" fill="#a03020" stroke="#f0e6cc" stroke-width="2.5" paint-order="stroke">Tunnels Beneath Blackwater Crossing</text><text x="601.7922777631743" y="432.8580610981786" text-anchor="middle" font-family="'Palatino Linotype', 'Book Antiqua', Palatino, serif" font-size="13px" font-style="italic" fill="#3a6590" stroke="#f0e6cc" stroke-width="2.5" paint-order="stroke">Farms</text><text x="522.1336196413525" y="513.6757756664203" text-anchor="middle" font-family="'Palatino Linotype', 'Book Antiqua', Palatino, serif" font-size="13px" font-style="italic" fill="#3a6590" stroke="#f0e6cc" stroke-width="2.5" paint-order="stroke">The Abandoned Farmhouse</text><text x="622.1864484239736" y="352.2732309243314" text-anchor="middle" font-family="'Palatino Linotype', 'Book Antiqua', Palatino, serif" font-size="13px" font-style="italic" fill="#3a6590" stroke="#f0e6cc" stroke-width="2.5" paint-order="stroke">The Graveyard</text><text x="707.7855808018575" y="346.7120665146523" text-anchor="middle" font-family="'Palatino Linotype', 'Book Antiqua', Palatino, serif" font-size="13px" font-style="italic" fill="#a03020" stroke="#f0e6cc" stroke-width="2.5" paint-order="stroke">Kalla Cave</text><text x="598.9172750264347" y="262.85457993565757" text-anchor="middle" font-family="'Palatino Linotype', 'Book Antiqua', Palatino, serif" font-size="13px" font-style="italic" fill="#3a6590" stroke="#f0e6cc" stroke-width="2.5" paint-order="stroke">The Old Forest</text><text x="569.3336211402847" y="222.53074944348057" text-anchor="middle" font-family="'Palatino Linotype', 'Book Antiqua', Palatino, serif" font-size="13px" font-style="italic" fill="#3a6590" stroke="#f0e6cc" stroke-width="2.5" paint-order="stroke">The Mud Wallow</text><text x="491.2007551063346" y="207.34003937228096" text-anchor="middle" font-family="'Palatino Linotype', 'Book Antiqua', Palatino, serif" font-size="13px" font-style="italic" fill="#3a6590" stroke="#f0e6cc" stroke-width="2.5" paint-order="stroke">Pjörk Choppe Hille</text><text x="437.2248614482273" y="175.74110691855162" text-anchor="middle" font-family="'Palatino Linotype', 'Book Antiqua', Palatino, serif" font-size="13px" font-style="italic" fill="#a03020" stroke="#f0e6cc" stroke-width="2.5" paint-order="stroke">The Spider Cave</text><text x="658.5326816983826" y="200.27405878644998" text-anchor="middle" font-family="'Palatino Linotype', 'Book Antiqua', Palatino, serif" font-size="13px" font-style="italic" fill="#a03020" stroke="#f0e6cc" stroke-width="2.5" paint-order="stroke">Crag Cairn</text><text x="702.5592353371535" y="238.7810768891628" text-anchor="middle" font-family="'Palatino Linotype', 'Book Antiqua', Palatino, serif" font-size="13px" font-style="italic" fill="#3a6590" stroke="#f0e6cc" stroke-width="2.5" paint-order="stroke">The Kobold Crevasse</text><text x="483.927486266174" y="157.87459939353306" text-anchor="middle" font-family="'Palatino Linotype', 'Book Antiqua', Palatino, serif" font-size="13px" font-style="italic" fill="#3a6590" stroke="#f0e6cc" stroke-width="2.5" paint-order="stroke">The Fae Glade</text><text x="465.4253899573027" y="257.8246992643284" text-anchor="middle" font-family="'Palatino Linotype', 'Book Antiqua', Palatino, serif" font-size="16px" font-style="italic" fill="#3a6590" stroke="#f0e6cc" stroke-width="2.5" paint-order="stroke" letter-spacing="2.5px">Thornespire Keep</text><text x="562.8723723144692" y="107.99325150078043" text-anchor="middle" font-family="'Palatino Linotype', 'Book Antiqua', Palatino, serif" font-size="13px" font-style="italic" fill="#3a6590" stroke="#f0e6cc" stroke-width="2.5" paint-order="stroke">Raven's Perch</text><text x="420.14818321140996" y="342.4170852806201" text-anchor="middle" font-family="'Palatino Linotype', 'Book Antiqua', Palatino, serif" font-size="13px" font-style="italic" fill="#3a6590" stroke="#f0e6cc" stroke-width="2.5" paint-order="stroke">The Swamp</text><text x="420.0185499191984" y="676.8621988509877" text-anchor="middle" font-family="'Palatino Linotype', 'Book Antiqua', Palatino, serif" font-size="13px" font-style="italic" fill="#3a6590" stroke="#f0e6cc" stroke-width="2.5" paint-order="stroke">Mistwood Glen</text><text x="622.4581389740172" y="820.9990015131604" text-anchor="middle" font-family="'Palatino Linotype', 'Book Antiqua', Palatino, serif" font-size="13px" font-style="italic" fill="#3a6590" stroke="#f0e6cc" stroke-width="2.5" paint-order="stroke">Serpent's Teeth Crags</text><text x="629.0659938821692" y="757.8294675810316" text-anchor="middle" font-family="'Palatino Linotype', 'Book Antiqua', Palatino, serif" font-size="13px" font-style="italic" fill="#3a6590" stroke="#f0e6cc" stroke-width="2.5" paint-order="stroke">Brunhilde's Mountain Watch Camp</text><text x="547.3912207329441" y="767.8376474841231" text-anchor="middle" font-family="'Palatino Linotype', 'Book Antiqua', Palatino, serif" font-size="13px" font-style="italic" fill="#a03020" stroke="#f0e6cc" stroke-width="2.5" paint-order="stroke">The Bandit Camp</text><text x="548.2326066894428" y="817.8263773445476" text-anchor="middle" font-family="'Palatino Linotype', 'Book Antiqua', Palatino, serif" font-size="13px" font-style="italic" fill="#3a6590" stroke="#f0e6cc" stroke-width="2.5" paint-order="stroke">Tower of the Stargazer</text><text x="719.0518232213922" y="901.7801752500018" text-anchor="middle" font-family="'Palatino Linotype', 'Book Antiqua', Palatino, serif" font-size="13px" font-style="italic" fill="#a03020" stroke="#f0e6cc" stroke-width="2.5" paint-order="stroke">Vault of First Light</text><text x="615.8723019633093" y="101.42405317644388" text-anchor="middle" font-family="'Palatino Linotype', 'Book Antiqua', Palatino, serif" font-size="13px" font-style="italic" fill="#3a6590" stroke="#f0e6cc" stroke-width="2.5" paint-order="stroke">The North Road</text><text x="683.6181884551656" y="566.5479991083549" text-anchor="middle" font-family="'Palatino Linotype', 'Book Antiqua', Palatino, serif" font-size="13px" font-style="italic" fill="#3a6590" stroke="#f0e6cc" stroke-width="2.5" paint-order="stroke">Lower Blackwater</text><text x="626.6126042114332" y="909.9292808326401" text-anchor="middle" font-family="'Palatino Linotype', 'Book Antiqua', Palatino, serif" font-size="13px" font-style="italic" fill="#3a6590" stroke="#f0e6cc" stroke-width="2.5" paint-order="stroke">The South Pass</text></g><g class="day-labels"><text x="597.2579519827125" y="401.0796078310756" text-anchor="middle" font-family="'Palatino Linotype', 'Book Antiqua', Palatino, serif" font-size="8px" font-style="italic" fill="#6a90b0" stroke="#f0e6cc" stroke-width="2" paint-order="stroke">0.67 days</text><text x="610.5518617252042" y="294.5639054299945" text-anchor="middle" font-family="'Palatino Linotype', 'Book Antiqua', Palatino, serif" font-size="8px" font-style="italic" fill="#6a90b0" stroke="#f0e6cc" stroke-width="2" paint-order="stroke">0.33 days</text><text x="664.9860146129156" y="336.49264871949185" text-anchor="middle" font-family="'Palatino Linotype', 'Book Antiqua', Palatino, serif" font-size="8px" font-style="italic" fill="#6a90b0" stroke="#f0e6cc" stroke-width="2" paint-order="stroke">0.5 days</text><text x="532.1713324918687" y="247.33963959999295" text-anchor="middle" font-family="'Palatino Linotype', 'Book Antiqua', Palatino, serif" font-size="8px" font-style="italic" fill="#6a90b0" stroke="#f0e6cc" stroke-width="2" paint-order="stroke">0.5 days</text><text x="597.3937972577343" y="635.44249312549" text-anchor="middle" font-family="'Palatino Linotype', 'Book Antiqua', Palatino, serif" font-size="8px" font-style="italic" fill="#6a90b0" stroke="#f0e6cc" stroke-width="2" paint-order="stroke">2 days</text><text x="496.1740027303249" y="563.3740917944037" text-anchor="middle" font-family="'Palatino Linotype', 'Book Antiqua', Palatino, serif" font-size="8px" font-style="italic" fill="#6a90b0" stroke="#f0e6cc" stroke-width="2" paint-order="stroke">2.5 days</text><text x="584.9246798534807" y="781.4183244986417" text-anchor="middle" font-family="'Palatino Linotype', 'Book Antiqua', Palatino, serif" font-size="8px" font-style="italic" fill="#6a90b0" stroke="#f0e6cc" stroke-width="2" paint-order="stroke">0.5 days</text><text x="625.7620664280932" y="776.4142345470959" text-anchor="middle" font-family="'Palatino Linotype', 'Book Antiqua', Palatino, serif" font-size="8px" font-style="italic" fill="#6a90b0" stroke="#f0e6cc" stroke-width="2" paint-order="stroke">0.5 days</text><text x="670.7549810977047" y="848.389588381581" text-anchor="middle" font-family="'Palatino Linotype', 'Book Antiqua', Palatino, serif" font-size="8px" font-style="italic" fill="#6a90b0" stroke="#f0e6cc" stroke-width="2" paint-order="stroke">1 day</text><text x="442.7867865843563" y="287.12089227247424" text-anchor="middle" font-family="'Palatino Linotype', 'Book Antiqua', Palatino, serif" font-size="8px" font-style="italic" fill="#6a90b0" stroke="#f0e6cc" stroke-width="2" paint-order="stroke">1 day</text><text x="545.0590150663846" y="222.09730965396926" text-anchor="middle" font-family="'Palatino Linotype', 'Book Antiqua', Palatino, serif" font-size="8px" font-style="italic" fill="#6a90b0" stroke="#f0e6cc" stroke-width="2" paint-order="stroke">0.5 days</text><text x="487.56412068625434" y="169.607319382907" text-anchor="middle" font-family="'Palatino Linotype', 'Book Antiqua', Palatino, serif" font-size="8px" font-style="italic" fill="#6a90b0" stroke="#f0e6cc" stroke-width="2" paint-order="stroke">0.5 days</text><text x="474.6764381117383" y="194.8496493289307" text-anchor="middle" font-family="'Palatino Linotype', 'Book Antiqua', Palatino, serif" font-size="8px" font-style="italic" fill="#6a90b0" stroke="#f0e6cc" stroke-width="2" paint-order="stroke">0.5 days</text><text x="589.3723371388892" y="91.70865233861215" text-anchor="middle" font-family="'Palatino Linotype', 'Book Antiqua', Palatino, serif" font-size="8px" font-style="italic" fill="#6a90b0" stroke="#f0e6cc" stroke-width="2" paint-order="stroke">0.25 days</text><text x="650.7382551817941" y="237.81782841241017" text-anchor="middle" font-family="'Palatino Linotype', 'Book Antiqua', Palatino, serif" font-size="8px" font-style="italic" fill="#6a90b0" stroke="#f0e6cc" stroke-width="2" paint-order="stroke">0.5 days</text><text x="585.34537283173" y="806.412689428854" text-anchor="middle" font-family="'Palatino Linotype', 'Book Antiqua', Palatino, serif" font-size="8px" font-style="italic" fill="#6a90b0" stroke="#f0e6cc" stroke-width="2" paint-order="stroke">0.5 days</text><text x="607.394788494872" y="169.13931655605072" text-anchor="middle" font-family="'Palatino Linotype', 'Book Antiqua', Palatino, serif" font-size="8px" font-style="italic" fill="#6a90b0" stroke="#f0e6cc" stroke-width="2" paint-order="stroke">1 day</text><text x="624.5353715927251" y="852.4641411729002" text-anchor="middle" font-family="'Palatino Linotype', 'Book Antiqua', Palatino, serif" font-size="8px" font-style="italic" fill="#6a90b0" stroke="#f0e6cc" stroke-width="2" paint-order="stroke">0.5 days</text><text x="584.1254480833597" y="229.69266468956909" text-anchor="middle" font-family="'Palatino Linotype', 'Book Antiqua', Palatino, serif" font-size="8px" font-style="italic" fill="#6a90b0" stroke="#f0e6cc" stroke-width="2" paint-order="stroke">0.25 days</text><text x="613.9331514193336" y="198.4024041149653" text-anchor="middle" font-family="'Palatino Linotype', 'Book Antiqua', Palatino, serif" font-size="8px" font-style="italic" fill="#6a90b0" stroke="#f0e6cc" stroke-width="2" paint-order="stroke">0.25 days</text></g><g class="annotations"><text x="621.4312828140063" y="453.08258454387175" text-anchor="middle" transform="rotate(0.29487938061356544, 621.4312828140063, 453.08258454387175)" font-family="'Palatino Linotype', serif" font-size="9px" font-style="italic" fill="#3a6590" stroke="#f0e6cc" stroke-width="2.5" paint-order="stroke"><tspan x="621.4312828140063" dy="0">A walled frontier town at</tspan><tspan x="621.4312828140063" dy="1.15em">the center of…</tspan></text><text x="612.4779329492279" y="467.8580107908689" text-anchor="middle" transform="rotate(6.36936454102397, 612.4779329492279, 467.8580107908689)" font-family="'Palatino Linotype', serif" font-size="9px" font-style="italic" fill="#3a6590" stroke="#f0e6cc" stroke-width="2.5" paint-order="stroke"><tspan x="612.4779329492279" dy="0">Farms surround</tspan><tspan x="612.4779329492279" dy="1.15em">Blackwater Crossing in…</tspan></text><text x="500.631819887031" y="468.93531812956877" text-anchor="middle" transform="rotate(-3.374131668359041, 500.631819887031, 468.93531812956877)" font-family="'Palatino Linotype', serif" font-size="9px" font-style="italic" fill="#3a6590" stroke="#f0e6cc" stroke-width="2.5" paint-order="stroke"><tspan x="500.631819887031" dy="0">A ruined farmstead</tspan><tspan x="500.631819887031" dy="1.15em">near Blackwater…</tspan></text><text x="632.8574561901572" y="373.8764752917867" text-anchor="middle" transform="rotate(2.0775450356304646, 632.8574561901572, 373.8764752917867)" font-family="'Palatino Linotype', serif" font-size="9px" font-style="italic" fill="#3a6590" stroke="#f0e6cc" stroke-width="2.5" paint-order="stroke"><tspan x="632.8574561901572" dy="0">A Graveyard is located</tspan><tspan x="632.8574561901572" dy="1.15em">on the Old…</tspan></text><text x="746.7952172250646" y="322.18724524798193" text-anchor="middle" transform="rotate(2.629631195217371, 746.7952172250646, 322.18724524798193)" font-family="'Palatino Linotype', serif" font-size="9px" font-style="italic" fill="#a03020" stroke="#f0e6cc" stroke-width="2.5" paint-order="stroke"><tspan x="746.7952172250646" dy="0">The Kalla Cave is</tspan><tspan x="746.7952172250646" dy="1.15em">located 4 hours…</tspan></text><text x="569.3633965427267" y="202.87558656850982" text-anchor="middle" transform="rotate(-4.664848327636719, 569.3633965427267, 202.87558656850982)" font-family="'Palatino Linotype', serif" font-size="9px" font-style="italic" fill="#3a6590" stroke="#f0e6cc" stroke-width="2.5" paint-order="stroke"><tspan x="569.3633965427267" dy="0">A dense, ancient</tspan><tspan x="569.3633965427267" dy="1.15em">woodland north and…</tspan></text><text x="588.9743349349347" y="160.75474006856453" text-anchor="middle" transform="rotate(0.6340942792594433, 588.9743349349347, 160.75474006856453)" font-family="'Palatino Linotype', serif" font-size="9px" font-style="italic" fill="#3a6590" stroke="#f0e6cc" stroke-width="2.5" paint-order="stroke"><tspan x="588.9743349349347" dy="0">The Mud Wallow is a hot</tspan><tspan x="588.9743349349347" dy="1.15em">spring with…</tspan></text><text x="461.13215559343035" y="234.93169471974915" text-anchor="middle" transform="rotate(-0.4356558658182621, 461.13215559343035, 234.93169471974915)" font-family="'Palatino Linotype', serif" font-size="9px" font-style="italic" fill="#3a6590" stroke="#f0e6cc" stroke-width="2.5" paint-order="stroke"><tspan x="461.13215559343035" dy="0">A porc settlement</tspan><tspan x="461.13215559343035" dy="1.15em">located in the Old…</tspan></text><text x="458.922819988983" y="208.04816820451776" text-anchor="middle" transform="rotate(0.6474823616445065, 458.922819988983, 208.04816820451776)" font-family="'Palatino Linotype', serif" font-size="9px" font-style="italic" fill="#a03020" stroke="#f0e6cc" stroke-width="2.5" paint-order="stroke"><tspan x="458.922819988983" dy="0">The Spider Cave at Pjörk</tspan><tspan x="458.922819988983" dy="1.15em">Choppe Hille is…</tspan></text><text x="676.1044401340405" y="221.0181782594776" text-anchor="middle" transform="rotate(-3.435431033372879, 676.1044401340405, 221.0181782594776)" font-family="'Palatino Linotype', serif" font-size="9px" font-style="italic" fill="#a03020" stroke="#f0e6cc" stroke-width="2.5" paint-order="stroke"><tspan x="676.1044401340405" dy="0">The Crag Cairn (Barrow</tspan><tspan x="676.1044401340405" dy="1.15em">Wight) is located…</tspan></text><text x="710.7645632025584" y="263.33180532866646" text-anchor="middle" transform="rotate(-6.727572068572044, 710.7645632025584, 263.33180532866646)" font-family="'Palatino Linotype', serif" font-size="9px" font-style="italic" fill="#3a6590" stroke="#f0e6cc" stroke-width="2.5" paint-order="stroke"><tspan x="710.7645632025584" dy="0">A location east off the</tspan><tspan x="710.7645632025584" dy="1.15em">main road in the Old…</tspan></text><text x="494.8139217417927" y="177.74845167702443" text-anchor="middle" transform="rotate(-2.0135292261838913, 494.8139217417927, 177.74845167702443)" font-family="'Palatino Linotype', serif" font-size="9px" font-style="italic" fill="#3a6590" stroke="#f0e6cc" stroke-width="2.5" paint-order="stroke"><tspan x="494.8139217417927" dy="0">A section of</tspan><tspan x="494.8139217417927" dy="1.15em">old-growth forest…</tspan></text><text x="458.4355013051886" y="282.24924775283716" text-anchor="middle" transform="rotate(-7.453741509467363, 458.4355013051886, 282.24924775283716)" font-family="'Palatino Linotype', serif" font-size="9px" font-style="italic" fill="#3a6590" stroke="#f0e6cc" stroke-width="2.5" paint-order="stroke"><tspan x="458.4355013051886" dy="0">A stone fortress atop a</tspan><tspan x="458.4355013051886" dy="1.15em">tall hill in the…</tspan></text><text x="562.826228314836" y="131.20117460027814" text-anchor="middle" transform="rotate(-1.6936774626374245, 562.826228314836, 131.20117460027814)" font-family="'Palatino Linotype', serif" font-size="9px" font-style="italic" fill="#3a6590" stroke="#f0e6cc" stroke-width="2.5" paint-order="stroke"><tspan x="562.826228314836" dy="0">An abandoned</tspan><tspan x="562.826228314836" dy="1.15em">watchtower in the Old…</tspan></text><text x="395.85426469645273" y="292.2528689375069" text-anchor="middle" transform="rotate(4.332232303917408, 395.85426469645273, 292.2528689375069)" font-family="'Palatino Linotype', serif" font-size="9px" font-style="italic" fill="#3a6590" stroke="#f0e6cc" stroke-width="2.5" paint-order="stroke"><tspan x="395.85426469645273" dy="0">Northwest of Blackwater</tspan><tspan x="395.85426469645273" dy="1.15em">Crossing. It has…</tspan></text><text x="436.96966905045673" y="627.8646054678798" text-anchor="middle" transform="rotate(2.8615618012845516, 436.96966905045673, 627.8646054678798)" font-family="'Palatino Linotype', serif" font-size="9px" font-style="italic" fill="#3a6590" stroke="#f0e6cc" stroke-width="2.5" paint-order="stroke"><tspan x="436.96966905045673" dy="0">A mystical sanctuary</tspan><tspan x="436.96966905045673" dy="1.15em">deep in the…</tspan></text><text x="628.2125303896293" y="850.403635087877" text-anchor="middle" transform="rotate(-2.004983052611351, 628.2125303896293, 850.403635087877)" font-family="'Palatino Linotype', serif" font-size="9px" font-style="italic" fill="#3a6590" stroke="#f0e6cc" stroke-width="2.5" paint-order="stroke"><tspan x="628.2125303896293" dy="0">The Serpent's Teeth</tspan><tspan x="628.2125303896293" dy="1.15em">Crags is a…</tspan></text><text x="610.669474339246" y="776.5793757681323" text-anchor="middle" transform="rotate(5.000281162559986, 610.669474339246, 776.5793757681323)" font-family="'Palatino Linotype', serif" font-size="9px" font-style="italic" fill="#3a6590" stroke="#f0e6cc" stroke-width="2.5" paint-order="stroke"><tspan x="610.669474339246" dy="0">Brunhilde Ironfoot's</tspan><tspan x="610.669474339246" dy="1.15em">Mountain Watch…</tspan></text><text x="555.3558632438479" y="704.3639929522863" text-anchor="middle" transform="rotate(2.87806998193264, 555.3558632438479, 704.3639929522863)" font-family="'Palatino Linotype', serif" font-size="9px" font-style="italic" fill="#a03020" stroke="#f0e6cc" stroke-width="2.5" paint-order="stroke"><tspan x="555.3558632438479" dy="0">The Bandit Camp at Hangman</tspan><tspan x="555.3558632438479" dy="1.15em">Hill is located…</tspan></text><text x="564.723580119794" y="834.7899141954928" text-anchor="middle" transform="rotate(-6.786456763744354, 564.723580119794, 834.7899141954928)" font-family="'Palatino Linotype', serif" font-size="9px" font-style="italic" fill="#3a6590" stroke="#f0e6cc" stroke-width="2.5" paint-order="stroke"><tspan x="564.723580119794" dy="0">Home of Sir Uravulon</tspan><tspan x="564.723580119794" dy="1.15em">Calcidius, an…</tspan></text><text x="770.0372624256129" y="874.766868529816" text-anchor="middle" transform="rotate(2.942780140787363, 770.0372624256129, 874.766868529816)" font-family="'Palatino Linotype', serif" font-size="9px" font-style="italic" fill="#a03020" stroke="#f0e6cc" stroke-width="2.5" paint-order="stroke"><tspan x="770.0372624256129" dy="0">The Vault of First Light</tspan><tspan x="770.0372624256129" dy="1.15em">is an ancient…</tspan></text><text x="646.9734297802885" y="47.6130460515912" text-anchor="middle" transform="rotate(3.58782060071826, 646.9734297802885, 47.6130460515912)" font-family="'Palatino Linotype', serif" font-size="9px" font-style="italic" fill="#3a6590" stroke="#f0e6cc" stroke-width="2.5" paint-order="stroke"><tspan x="646.9734297802885" dy="0">The Old Northern Trade</tspan><tspan x="646.9734297802885" dy="1.15em">Road continues…</tspan></text><text x="680.802166117226" y="604.9159540101575" text-anchor="middle" transform="rotate(3.8173318915069103, 680.802166117226, 604.9159540101575)" font-family="'Palatino Linotype', serif" font-size="9px" font-style="italic" fill="#3a6590" stroke="#f0e6cc" stroke-width="2.5" paint-order="stroke"><tspan x="680.802166117226" dy="0">The Blackwater River</tspan><tspan x="680.802166117226" dy="1.15em">continues southeast…</tspan></text><text x="672.6511550260548" y="897.63911938089" text-anchor="middle" transform="rotate(-6.498666651546955, 672.6511550260548, 897.63911938089)" font-family="'Palatino Linotype', serif" font-size="9px" font-style="italic" fill="#3a6590" stroke="#f0e6cc" stroke-width="2.5" paint-order="stroke"><tspan x="672.6511550260548" dy="0">The Old Northern Trade</tspan><tspan x="672.6511550260548" dy="1.15em">Road emerges from…</tspan></text></g><g transform="translate(678.3224124627939, 250.46376152448224) scale(0.9)" opacity="0.6"><path d="M 0 0 C 6 -8, 14 -4, 18 -10 C 22 -16, 28 -12, 32 -8 C 36 -4, 30 2, 24 0" fill="none" stroke="#a03020" stroke-width="1.8" stroke-linecap="round"/><path d="M 14 -8 C 8 -22, 2 -26, -4 -20 C -2 -16, 4 -14, 14 -8" fill="#a03020" opacity="0.25" stroke="#a03020" stroke-width="0.8"/><path d="M 22 -12 C 28 -26, 36 -28, 40 -20 C 36 -16, 28 -14, 22 -12" fill="#a03020" opacity="0.25" stroke="#a03020" stroke-width="0.8"/><path d="M 0 0 L -4 -3 L -2 2 Z" fill="#a03020" opacity="0.5"/><path d="M 24 0 C 26 4, 30 6, 34 4" fill="none" stroke="#a03020" stroke-width="1.2" stroke-linecap="round"/></g><g transform="translate(618.2306927022433, 227.37437920747453) scale(-0.8, 0.8)" opacity="0.5"><path d="M 0 0 C 5 -10, 15 -6, 20 -12 C 25 -18, 32 -10, 28 -4" fill="none" stroke="#a03020" stroke-width="1.6" stroke-linecap="round"/><path d="M 28 -4 C 32 0, 36 4, 40 2 L 38 5" fill="none" stroke="#a03020" stroke-width="1" stroke-linecap="round"/><path d="M 12 -9 C 8 -20, 2 -22, -2 -16 C 2 -14, 8 -12, 12 -9" fill="#a03020" opacity="0.2" stroke="#a03020" stroke-width="0.6"/></g><g transform="translate(510.18644209113563, 696.6922219592842) scale(0.8, 0.8)" opacity="0.5"><path d="M 0 0 C 5 -10, 15 -6, 20 -12 C 25 -18, 32 -10, 28 -4" fill="none" stroke="#a03020" stroke-width="1.6" stroke-linecap="round"/><path d="M 28 -4 C 32 0, 36 4, 40 2 L 38 5" fill="none" stroke="#a03020" stroke-width="1" stroke-linecap="round"/><path d="M 12 -9 C 8 -20, 2 -22, -2 -16 C 2 -14, 8 -12, 12 -9" fill="#a03020" opacity="0.2" stroke="#a03020" stroke-width="0.6"/></g><g transform="translate(784.0518232213922, 20.424053176443877)" opacity="0.5"><line x1="0" y1="-15" x2="0" y2="15" stroke="#3a6590" stroke-width="0.6"/><line x1="-9" y1="0" x2="9" y2="0" stroke="#3a6590" stroke-width="0.6"/><path d="M 0 -15 L 2.5 -10 L -2.5 -10 Z" fill="#3a6590"/><text x="0" y="-19" text-anchor="middle" font-family="'Palatino Linotype', serif" font-size="9px" font-style="italic" fill="#3a6590">N</text></g><text x="340.0185499191984" y="968.9292808326401" text-anchor="start" font-family="'Palatino Linotype', 'Book Antiqua', Palatino, serif" font-size="13px" font-style="italic" fill="#3a6590" opacity="0.7">The Basilisk Campaign</text><text x="340.0185499191984" y="983.9292808326401" text-anchor="start" font-family="'Palatino Linotype', 'Book Antiqua', Palatino, serif" font-size="10px" font-style="italic" fill="#6a90b0" opacity="0.6">Belerion, Dragon Isles</text><line x1="340.0185499191984" y1="971.9292808326401" x2="476.5185499191984" y2="971.9292808326401" stroke="#3a6590" stroke-width="0.4" opacity="0.5"/></g></svg>